<?xml version="1.0" encoding="utf-8"?>
<!-- Generator: Adobe Illustrator 24.0.1, SVG Export Plug-In . SVG Version: 6.00 Build 0)  -->
<svg version="1.1"
	 id="svg13" xmlns:cc="http://creativecommons.org/ns#" xmlns:dc="http://purl.org/dc/elements/1.1/" xmlns:inkscape="http://www.inkscape.org/namespaces/inkscape" xmlns:rdf="http://www.w3.org/1999/02/22-rdf-syntax-ns#" xmlns:sodipodi="http://sodipodi.sourceforge.net/DTD/sodipodi-0.dtd" xmlns:svg="http://www.w3.org/2000/svg"
	 xmlns="http://www.w3.org/2000/svg" xmlns:xlink="http://www.w3.org/1999/xlink" x="0px" y="0px" width="520px" height="220px"
	 viewBox="0 0 520 220" style="enable-background:new 0 0 520 220;" xml:space="preserve">
<style type="text/css">
	.st0{fill:#212833;}
	.st1{fill:#F0B90B;}
</style>
<path class="st0" d="M36.5,0h447C503.6,0,520,16.9,520,37.4v145.1c0,20.6-16.4,37.4-36.5,37.4h-447C16.4,220,0,203.1,0,182.6V37.4
	C0,16.9,16.4,0,36.5,0z"/>
<polygon class="st1" points="73.9,110 54.1,129.8 34.4,110 54.1,90.3 "/>
<rect x="107.9" y="96" transform="matrix(0.7071 -0.7071 0.7071 0.7071 -42.093 118.3516)" class="st1" width="27.9" height="27.9"/>
<polygon class="st1" points="155.8,124.1 175.5,143.9 121.9,197.5 68.2,143.9 88,124.1 121.9,158 "/>
<polygon class="st1" points="88,95.9 68.2,76.1 121.9,22.5 175.5,76.1 155.8,95.9 121.9,62 "/>
<polygon class="st1" points="209.4,110 189.6,129.8 169.9,110 189.6,90.3 "/>
<g>
	<path class="st1" d="M250.4,31.4c3.4-0.5,7.7-0.8,12.4-0.8c7.7,0,12.7,1.4,16.6,4.3c4.2,3.1,6.8,8.1,6.8,15.2
		c0,7.7-2.8,13.1-6.7,16.4c-4.3,3.5-10.7,5.2-18.7,5.2c-4.7,0-8.1-0.3-10.4-0.6L250.4,31.4L250.4,31.4z M259.6,64.4
		c0.8,0.2,2,0.2,3.2,0.2c8.3,0.1,13.7-4.5,13.7-14.2c0.1-8.4-4.9-12.8-12.7-12.8c-2,0-3.4,0.2-4.1,0.4v26.4H259.6z"/>
	<path class="st1" d="M298.9,59.5c0.3,3.8,4,5.6,8.3,5.6c3.1,0,5.6-0.4,8.1-1.2l1.2,6.2c-3,1.2-6.7,1.9-10.6,1.9
		c-10,0-15.7-5.8-15.7-15c0-7.4,4.6-15.7,14.8-15.7c9.5,0,13.1,7.4,13.1,14.6c0,1.6-0.2,2.9-0.3,3.6H298.9z M309.6,53.3
		c0-2.2-1-5.9-5.2-5.9c-3.8,0-5.4,3.5-5.6,5.9H309.6z"/>
	<path class="st1" d="M323.8,30.8h24.7v7.5H333v9.2h14.5v7.4H333v16.3h-9.2V30.8z"/>
	<path class="st1" d="M363.4,33.8c0,2.5-1.9,4.6-4.9,4.6c-2.9,0-4.8-2-4.7-4.6c-0.1-2.6,1.9-4.6,4.8-4.6
		C361.5,29.2,363.3,31.1,363.4,33.8z M354,71.3V41.9h9.1v29.3H354V71.3z"/>
	<path class="st1" d="M389.3,41.9l4,13.6c0.7,2.5,1.3,4.8,1.7,7.1h0.2c0.5-2.4,1-4.6,1.6-7.1l3.8-13.6h9.6l-10.9,29.3h-9.1
		l-10.7-29.3C379.5,41.9,389.3,41.9,389.3,41.9z"/>
	<path class="st1" d="M414.8,62.3c1.6,0.8,5.3,2.4,9.1,2.4c4.7,0,7.1-2.3,7.1-5.2c0-3.8-3.8-5.6-7.9-5.6h-3.7v-6.5h3.5
		c3.1-0.1,7-1.2,7-4.5c0-2.3-1.9-4.1-5.8-4.1c-3.2,0-6.5,1.4-8.2,2.3l-1.9-6.6c2.3-1.5,7-2.9,12.1-2.9c8.3,0,13,4.4,13,9.7
		c0,4.1-2.3,7.4-7.1,9.1v0.1c4.7,0.8,8.5,4.4,8.5,9.5c0,6.9-6.1,11.9-16,11.9c-5,0-9.3-1.3-11.6-2.8L414.8,62.3z"/>
</g>
<g>
	<path class="st1" d="M249.9,89.4h10.5V110h0.2c1-1.8,2.1-3.5,3.2-5.1l10.6-15.5h12.9l-15.4,19.9l16.3,26.8h-12.3L264.5,116l-4,4.9
		v15.2H250V89.4H249.9z"/>
	<path class="st1" d="M321.5,116.3h-17.2v11.1h19.2v8.7h-29.8V89.4h28.8v8.7h-18.2v9.7h17.2V116.3z"/>
	<path class="st1" d="M359.9,116.3h-17.2v11.1h19.2v8.7h-29.8V89.4h28.8v8.7h-18.2v9.7h17.2V116.3z"/>
	<path class="st1" d="M370.5,90c3.3-0.6,7.8-1,14.3-1s11.1,1.2,14.3,3.7c3,2.4,5,6.2,5,10.8s-1.5,8.4-4.3,11.1
		c-3.6,3.4-8.9,4.9-15.2,4.9c-1.4,0-2.6-0.1-3.6-0.2V136h-10.5L370.5,90L370.5,90z M380.9,111.2c0.9,0.2,2,0.3,3.5,0.3
		c5.6,0,9.1-2.8,9.1-7.6c0-4.3-3-6.9-8.2-6.9c-2.1,0-3.6,0.2-4.4,0.4V111.2z"/>
	<path class="st1" d="M439.8,116.3h-17.2v11.1h19.2v8.7H412V89.4h28.8v8.7h-18.2v9.7h17.2V116.3z"/>
	<path class="st1" d="M450.4,90c3.4-0.6,8.4-1,14.1-1c6.9,0,11.8,1,15.1,3.7c2.8,2.2,4.3,5.5,4.3,9.8c0,6-4.2,10-8.2,11.5v0.2
		c3.3,1.3,5.1,4.4,6.2,8.7c1.5,5.3,2.9,11.4,3.8,13.2h-10.8c-0.8-1.4-1.9-5.1-3.3-10.9c-1.2-5.8-3.3-7.4-7.5-7.5h-3.2V136h-10.5V90z
		 M460.8,110.1h4.2c5.3,0,8.4-2.6,8.4-6.7c0-4.3-2.9-6.4-7.8-6.5c-2.6,0-4,0.2-4.8,0.3L460.8,110.1L460.8,110.1z"/>
</g>
<g>
	<path class="st1" d="M250.4,184.9V151h9l7,12.4c2,3.6,4,7.8,5.5,11.6h0.2c-0.5-4.5-0.7-9.1-0.7-14.2v-9.9h7v33.9h-8l-7.2-13.1
		c-2-3.6-4.2-8-5.9-12l-0.2,0.1c0.2,4.5,0.3,9.3,0.3,14.8v10.2L250.4,184.9L250.4,184.9z"/>
	<path class="st1" d="M306.2,170.5h-12.5v8h13.9v6.3H286v-33.9h21v6.3h-13.2v7h12.5L306.2,170.5L306.2,170.5z"/>
	<path class="st1" d="M320.7,157.4h-9.1V151h26v6.4h-9.3v27.5h-7.7v-27.5H320.7z"/>
	<path class="st1" d="M349.6,184.9l-8-33.9h8.2l2.6,13.9c0.8,4.1,1.5,8.4,2,11.9h0.1c0.6-3.7,1.4-7.7,2.2-11.9l2.9-13.9h8.1
		l2.7,14.3c0.8,4,1.3,7.6,1.8,11.4h0.1c0.5-3.8,1.3-7.7,2-11.8l2.8-13.9h7.8l-8.7,33.9h-8.3l-2.9-14.6c-0.7-3.4-1.2-6.6-1.6-10.5
		h-0.1c-0.6,3.8-1.2,7-2,10.5l-3.2,14.6H349.6z"/>
	<path class="st1" d="M420.4,167.6c0,11.1-6.7,17.9-16.6,17.9c-10.1,0-15.9-7.6-15.9-17.2c0-10.2,6.5-17.8,16.5-17.8
		C414.8,150.4,420.4,158.2,420.4,167.6z M395.9,168c0,6.6,3.1,11.3,8.2,11.3c5.2,0,8.1-4.9,8.1-11.5c0-6.1-2.9-11.3-8.2-11.3
		C399,156.5,395.9,161.4,395.9,168z"/>
	<path class="st1" d="M426.5,151.4c2.5-0.4,6.1-0.7,10.2-0.7c5,0,8.5,0.8,11,2.7c2,1.6,3.1,4,3.1,7.1c0,4.3-3.1,7.3-6,8.3v0.2
		c2.4,1,3.7,3.2,4.5,6.3c1.1,3.8,2.1,8.2,2.8,9.6h-7.8c-0.6-1-1.4-3.7-2.4-7.9c-0.9-4.2-2.4-5.4-5.5-5.4h-2.3v13.3h-7.6L426.5,151.4
		L426.5,151.4z M434.1,166h3c3.8,0,6.1-1.9,6.1-4.9c0-3.1-2.1-4.7-5.6-4.7c-1.9,0-2.9,0.2-3.5,0.3V166z"/>
	<path class="st1" d="M457.3,151h7.6v15h0.2c0.8-1.3,1.6-2.5,2.3-3.7l7.7-11.3h9.4l-11.2,14.4l11.8,19.5h-9l-8.3-14.6l-2.9,3.6V185
		h-7.6V151z"/>
</g>
</svg>
