<svg height="512pt" viewBox="0 0 512.00012 512" width="512pt" xmlns="http://www.w3.org/2000/svg"><path fill="#171819" d="m471.851562 241.925781v40.984375c0 11.042969 8.949219 19.996094 19.992188 19.996094s19.992188-8.953125 19.992188-19.996094v-121.921875c0-44.097656-35.875-79.976562-79.972657-79.976562h-86.046875v-26.066407c0-30.296874-24.648437-54.945312-54.945312-54.945312h-69.90625c-30.296875 0-54.945313 24.648438-54.945313 54.945312v26.066407h-86.046875c-44.097656 0-79.972656 35.875-79.972656 79.972656v232.925781c0 44.097656 35.875 79.976563 79.972656 79.976563h168.949219c11.042969 0 19.992187-8.953125 19.992187-19.996094 0-11.039063-8.949218-19.992187-19.992187-19.992187h-168.949219c-22.046875 0-39.984375-17.9375-39.984375-39.988282v-151.984375h196.9375v30.027344c0 11.039063 8.949219 19.992187 19.992188 19.992187s19.992187-8.953124 19.992187-19.992187v-30.027344zm-265.84375-186.980469c0-8.246093 6.710938-14.957031 14.957032-14.957031h69.90625c8.246094 0 14.957031 6.707031 14.957031 14.957031v26.066407h-99.820313zm-166.019531 106.042969c0-22.050781 17.9375-39.988281 39.984375-39.988281h351.890625c22.046875 0 39.988281 17.9375 39.988281 39.988281v40.949219h-431.863281zm466.15625 316.71875-46.058593-46.058593c8.714843-13.851563 13.761718-30.230469 13.761718-47.769532 0-49.609375-40.359375-89.972656-89.96875-89.972656s-89.972656 40.363281-89.972656 89.972656 40.363281 89.972656 89.972656 89.972656c17.621094 0 34.074219-5.097656 47.96875-13.890624l46.019532 46.019531c3.90625 3.90625 9.023437 5.859375 14.140624 5.859375 5.117188 0 10.230469-1.953125 14.136719-5.859375 7.808594-7.808594 7.808594-20.464844 0-28.273438zm-172.25-93.828125c0-27.5625 22.421875-49.984375 49.984375-49.984375 27.558594 0 49.984375 22.421875 49.984375 49.984375s-22.425781 49.984375-49.984375 49.984375c-27.5625 0-49.984375-22.425781-49.984375-49.984375zm0 0"/></svg>
