<svg height="512pt" viewBox="-27 0 512 512" width="512pt" xmlns="http://www.w3.org/2000/svg"><path fill="#171819" d="m189.886719 472h-109.886719c-22.054688 0-40-17.945312-40-40v-302c0-22.054688 17.945312-40 40-40h62.890625v10c0 33.085938 26.914063 60 60 60 33.082031 0 60-26.914062 60-60v-10h63c22.054687 0 40 17.945312 40 40v89c0 11.046875 8.953125 20 20 20 11.042969 0 20-8.953125 20-20v-89c0-44.113281-35.890625-80-80-80h-63v-30c0-11.046875-8.957031-20-20-20h-80c-11.046875 0-20 8.953125-20 20v30h-62.890625c-44.113281 0-80 35.886719-80 80v302c0 44.113281 35.886719 80 80 80h109.890625c11.042969 0 20-8.953125 20-20s-8.957031-20-20.003906-20zm-7-432h40v60c0 11.027344-8.972657 20-20 20-11.027344 0-20-8.972656-20-20zm155 230c-66.71875 0-121 54.28125-121 121s54.28125 121 121 121c66.722656 0 121-54.28125 121-121s-54.277344-121-121-121zm0 202c-44.664063 0-81-36.335938-81-81s36.335937-81 81-81c44.664062 0 81 36.335938 81 81s-36.335938 81-81 81zm49-81c0 11.046875-8.953125 20-20 20h-29c-11.042969 0-20-8.953125-20-20v-41c0-11.046875 8.957031-20 20-20 11.046875 0 20 8.953125 20 20v21h9c11.046875 0 20 8.953125 20 20zm0 0"/></svg>
