<?xml version="1.0" encoding="utf-8"?>
<!-- Generator: Adobe Illustrator 24.0.1, SVG Export Plug-In . SVG Version: 6.00 Build 0)  -->
<svg version="1.1" id="Layer_1" xmlns="http://www.w3.org/2000/svg" xmlns:xlink="http://www.w3.org/1999/xlink" x="0px" y="0px"
	 width="240px" height="128px" viewBox="0 0 240 128" style="enable-background:new 0 0 240 128;" xml:space="preserve">
<style type="text/css">
	.st0{fill:#EEC542;stroke:#424451;stroke-width:5;stroke-miterlimit:10;}
	.st1{fill:#424451;}
	.st2{fill:#EEC542;}
</style>
<circle class="st0" cx="176" cy="64" r="61.5"/>
<circle class="st0" cx="64" cy="64" r="61.5"/>
<g id="layer101_1_">
	<path class="st1" d="M154.8,101.5c-1.1-0.2-2.6-0.8-3.6-1.5c-0.6-0.4-1.5-1.5-1.8-1.9c-0.1-0.1-0.2-0.5-0.4-0.9
		c-0.6-1.3-0.6-0.5-0.6-17.1c0-14.8,0-15,0.2-15.6c0.4-1.2,0.9-2,1.8-2.9c0.5-0.5,1.1-1,1.4-1.2c1.1-0.7,2.5-1.1,3.6-1.1h0.5v-8
		c0-7.7,0-8.1,0.2-9.1c1.4-7.6,7.2-13.4,15.1-15.2c1.7-0.4,2.6-0.5,4.9-0.5s3.2,0.1,5.3,0.6c3.6,0.9,7.1,3,9.6,5.6
		c2.3,2.4,4,5.6,4.7,8.7c0.4,1.7,0.4,2.6,0.4,10.3v7.5h0.6c1.1,0,2.8,0.6,4,1.4c1.5,1,2.6,2.7,2.9,4.4c0.1,0.4,0.1,5.2,0.1,15.7
		v15.1l-0.2,0.6c-0.5,1.2-0.9,2-1.7,2.8c-0.8,0.8-1.5,1.3-2.6,1.7c-1.4,0.6-0.3,0.5-23,0.5C164.4,101.6,154.8,101.6,154.8,101.5z
		 M197,96.8c0.7-0.3,1-0.5,1.3-1.1l0.3-0.5V80.5V65.7l-0.2-0.4c-0.3-0.5-0.9-1-1.4-1.2c-0.1-0.1-7-0.1-21-0.1h-20.9l-0.5,0.3
		c-0.5,0.3-1,0.8-1.2,1.3c-0.1,0.2-0.1,4.2-0.1,15c0,14,0,14.7,0.2,15.1c0.1,0.2,0.4,0.5,0.6,0.7c0.8,0.7-1,0.7,21.9,0.7
		C196.4,97,196.5,97,197,96.8z M191,51.7c0-5.1,0-8-0.1-8.4c-0.3-2-1.1-4-2.3-5.7c-0.7-1-2.8-3-3.8-3.7c-3.2-2.1-7-3-10.7-2.6
		c-3.7,0.4-6.8,1.9-9.3,4.4c-2,2-3.2,4.1-3.8,6.8c-0.2,0.9-0.2,1.1-0.2,9v8.1h15.1H191V51.7L191,51.7z"/>
	<path class="st1" d="M181,82.8c0,2.8-2.3,5.1-5.1,5.1s-5.1-2.3-5.1-5.1c0-1.9,1.1-3.6,2.7-4.5v-2.2c0-3.2,0-3.4,0.7-4.1
		c1-1,2.5-1,3.5,0c0.7,0.7,0.7,0.8,0.7,4v2.3C180,79.1,181,80.8,181,82.8z"/>
</g>
<g id="layer102_1_">
	<path class="st1" d="M57.3,97.3c-15-1.6-26.2-6.1-30.5-12.3c-1.3-1.9-1.4-2.4-1.6-6.2c-0.2-5.1,0.6-7.1,4.2-10.4
		c2.4-2.2,2.4-2.3,2.5-4.9v-2.6l0.4,1.9c0.9,4.1,6.2,8,13.9,10.2c4.6,1.3,14.9,2.5,18.5,2.2c1.8-0.2,2.8,0,3.3,0.3
		c0.9,0.7,0.9,3,0,3.7c-2.4,2.1-2.4,2.2-1.7,3.4l0.7,1.1h-4.6c-12.3,0-23.5-4.3-26.5-10c-0.5-1-1-1.7-1.1-1.3c-0.5,1.5,3.5,6,7,7.7
		c5.7,2.9,14.4,4.6,22.9,4.5c5.3,0,5.5,0,5.5,0.9c0,1.8-0.9,2.7-2.7,3c-2.1,0.4-2.8,1.1-2.6,2.5c0.2,1.5,2.7,2,7.2,1.3
		c4.6-0.7,7.8-2.1,8.1-3.5c0.3-1.7-1-2.6-3.6-2.2c-1.7,0.2-2.3,0.1-3-0.5c-1.4-1.3-0.9-1.8,1.8-2.4c8.8-1.8,15.8-5.6,17.7-9.6
		c0.9-2,1.1-3.9,0.4-3.9c-0.2,0-0.4,0.5-0.4,1.1c0,4.1-6.2,8.7-14.7,10.8c-5.3,1.3-5.6,1.3-4,0c1.7-1.3,1.3-3-0.6-3
		c-1.7,0-2.4-0.9-2.2-3l0.1-1.7l4-1c4.6-1.1,7.6-2.3,10.7-4.3s2.2-2.1-1.2-0.2c-3,1.7-7.8,3.5-10.7,4c-1.5,0.3-1.7,0.2-1.7-0.6
		c0-0.5-0.5-1.1-1.2-1.5c-1-0.4-1.3-0.9-1.4-2.3c-0.1-1.1,0-1.7,0.4-1.7c1.6,0,7.3-1,10.5-1.8c7.2-1.8,13.5-5.9,14.6-9.5
		c0.4-1.2,0.4-0.8,0.3,2c-0.1,3.1-0.2,3.6-1.5,5.2l-1.4,1.8l2.6,1.6c5.1,3.1,7.2,6.6,7.2,11.9c0,4.2-0.9,6.3-4.3,9.5
		c-4.2,4-11.9,7.1-21.6,8.8C73.1,97.2,60.9,97.7,57.3,97.3z"/>
	<path class="st1" d="M51.9,73.5c-10.2-1.8-17.4-6-18.7-10.7c-0.3-1-0.6-2-0.9-2.3c-0.5-0.7,0.7-3,2.6-4.9l1.8-1.8l0.3,1.6
		c0.4,2.1,4.4,5.8,8.1,7.5c1.6,0.7,4.4,1.7,6.3,2.2c4.3,1.1,14,2.4,15.4,2.1c0.9-0.2,1-0.1,1,1.3c0,1.7-0.7,2.6-1.9,2.6
		c-0.9,0-1.9,1.6-1.5,2.5c0.2,0.5-0.5,0.6-4.4,0.6C57.6,74.2,53.9,73.8,51.9,73.5z"/>
	<path class="st1" d="M56.2,65.4c-10.2-1.8-17.5-6-18.7-10.7c-0.2-0.7-0.7-1.9-1.2-2.6c-0.7-0.9-0.9-2.1-1.1-4.7l-0.1-3.5l0.8,1.9
		c1,2.4,2.4,3.9,5.6,6c4.7,3,14.3,5.5,21.2,5.4c3.8,0,4.9,0.5,4.9,2.7c0,1.4-0.7,2.3-1.9,2.3c-0.6,0-0.8,0.4-0.8,1.8
		c0,1,0.2,1.9,0.6,2C66.5,66.3,59.3,66,56.2,65.4z"/>
	<path class="st1" d="M71.8,65.7c0.8-0.3,1-0.8,1-1.9c0-1.7-0.9-2.8-1.8-2.3c-0.7,0.4-1.3-0.6-1.3-2.5v-1.7l4.9-0.8
		c10.5-1.7,17.7-5.4,19.9-10.4l0.8-1.8l0.2,2.9c0.1,1.6,0.3,3.3,0.4,3.9c0.1,0.6,0.4,1.5,0.5,2C96.6,54,96.6,54,96,53l-0.7-1.1v1.2
		c0,5.5-7.5,10.3-19.1,12.3C71.8,66.2,70.3,66.3,71.8,65.7z"/>
	<path class="st1" d="M54.3,55.6c-10.5-2.1-17.9-6.8-17.9-11.3c0-1.1-0.2-1.5-0.7-1.5c-1.1,0,1.3-4.2,3.3-5.8
		c2.5-2,7.9-4.4,12.5-5.6c3.5-0.9,5-1,13.8-0.9c9.2,0,10.2,0.1,14.2,1.2c7.1,1.9,11.6,4.5,14.7,8.6c0.7,0.9,0.7,1.4-0.2,4.3
		c-0.4,1.3-1.3,3.1-2.3,4.1c-2.8,3.1-10.6,6.2-18,7.3c-1.8,0.3-1.9,0.2-1.5-0.5c0.7-1.3,1.5-1.8,3.9-2c2.1-0.2,2.4-0.4,4.7-3
		c1.3-1.5,2.8-2.7,3.2-2.7c1.2,0,2.2-1.5,2.2-3.4c0-2.2-0.4-2.9-2.2-3.3c-1.4-0.3-1.9-0.8-2.4-2.4c-0.2-0.6-0.7-0.8-2.4-0.8H77
		l0.2,1.5c0.1,1.1-0.1,1.8-0.8,2.4c-2.6,2.4-11,2.5-13.6,0.2c-0.8-0.7-1.1-2.9-0.5-4.4c0.4-0.9,2.5-2,4.8-2.4
		c1.8-0.3,1.8-0.4,1.1-1.1c-0.7-0.7-1.7-0.8-7.3-0.8c-5.9,0-6.6,0.1-7.4,0.9c-0.5,0.5-0.9,1.3-0.9,1.8c0,1.1-1.3,1.8-3.5,1.8
		c-2,0-2.8,0.6-2.8,2c0,1.8,0.7,2.2,3.8,2.4c2.7,0.2,3,0.3,3.3,1.3c0.4,1.5-0.4,2.5-1.9,2.7c-3.4,0.4-3.8,3.1-0.9,5.9
		c2,1.8,2,1.8,5.6,1.8c3.5,0,4.1,0.3,4.1,1.8C60.2,56.4,58,56.3,54.3,55.6z"/>
</g>
<g id="layer104_1_">
	<path class="st2" d="M60.2,94.6c-8.8-0.4-17.7-2.4-24.1-5.5c-5.4-2.7-8.5-5.3-9.9-8.4c-2.1-4.5-1.1-8.4,3.2-12.3
		c2.2-2,2.4-2.4,2.4-4.2v-1.9l0.9,1.8c1.1,2.3,1.6,2.9,4.1,4.8c5.2,4,15,6.3,26.5,6.4H68l0.1,1.8l0.1,1.9L66,79.3
		c-3.6,0.5-11.4,0.2-15.9-0.7c-5.4-1-9.7-2.7-13.1-4.9c-2.2-1.4-2.7-1.6-2.7-1c0,0.9,2,3.8,3.4,5.1c1.5,1.3,7.1,3.9,10.6,4.8
		c5.3,1.4,9.2,1.9,15.6,1.9c5.7,0,5.9,0,5.9,0.9c0,1.6-0.9,2.6-2.6,2.9c-0.9,0.2-2,0.5-2.3,0.8c-0.8,0.7-8.7,0-14.2-1.2
		c-9.9-2.2-15.4-6.1-16.8-11.6c-0.5-2.3-0.5-2.3-0.6-0.6c0.3,7.6,11,13.6,27.1,14.9c3.1,0.3,4.2,0.5,4.9,1.3
		c0.8,0.8,1.3,0.9,4.8,0.6c5-0.4,9.4-1.8,10-3.2c0.3-0.6,0.7-1.1,0.9-1.1c0.2,0,1.9-0.7,3.7-1.5c4.9-2.2,9.8-7.2,8.2-8.2
		c-0.3-0.2-0.4-0.2-0.3,0c0.3,0.4-3.4,4.4-4.1,4.4c-0.2,0-0.4,0.1-0.4,0.4c0,0.2-1.1,0.8-2.3,1.3c-1.3,0.6-2.8,1.3-3.4,1.5
		c-0.9,0.4-1.6,0.5-4.5,0.3c-0.4,0-1.3,0.1-2,0.3c-0.9,0.3-1.4,0.1-2.1-0.6c-0.5-0.5-0.9-1.1-0.9-1.3c0-0.2,1.3-0.6,2.8-0.9
		c8.3-1.4,15.5-5.3,17.7-9.6c0.9-1.7,0.5-5.4-0.6-6.7c-0.8-0.9-1.6-0.7-1.3,0.3c0.6,1.5-4.5,7-6.4,7c-0.4,0-1.2,0.4-1.9,0.9
		c-0.7,0.5-1.5,0.9-1.8,0.7c-0.2-0.1-0.7,0-1,0.4c-0.4,0.6-2.3,1.2-4,1.4c-0.4,0-0.9,0.2-1.2,0.4c-1,0.6-3.3-0.2-3.6-1.3
		c-0.5-2.1-0.1-2.6,3-3.2c5.7-1.1,11.5-3.6,13.5-5.8l1.1-1.2l-2.6,0.9c-1.4,0.6-2.7,1.1-2.9,1c-0.2,0-0.9,0.2-1.6,0.5
		s-1.4,0.4-1.5,0.3s-0.5,0-0.8,0.3c-0.4,0.3-0.9,0.4-1.3,0.3c-0.4-0.2-0.8,0-0.9,0.2c-0.1,0.3-0.7,0.4-1.2,0.2
		c-0.5-0.1-1.2,0-1.5,0.3c-0.4,0.4-1.1,0.4-2.4-0.1c-1.8-0.6-1.9-0.8-1.9-2.3v-1.7l2.6-0.3c10.1-1.2,17.3-4.1,21-8.5
		c1.3-1.5,1.6-1.7,1.8-1c0.5,1.3-0.2,4-1.6,5.7l-1.3,1.7l2.6,1.6c3.1,1.9,5.2,4.2,6.5,6.9c1.1,2.5,0.9,4.9-0.6,8
		C97.4,89.4,79.1,95.3,60.2,94.6z"/>
	<path class="st2" d="M59.6,71.4c-8.3-0.9-15.9-3.6-19.8-7.1c-2.7-2.5-3.4-3.9-3.3-7c0-2.4,0-2.5,0.5-1.3c2,5.8,14.4,10.8,27.4,11.1
		l3.6,0.1v1.4c0,1.2-0.3,1.5-1.9,2.3c-1.1,0.5-2,0.9-2.2,0.9C63.7,71.9,61.8,71.6,59.6,71.4z"/>
	<path class="st2" d="M57.3,61.6c-8.1-1-15.2-3.8-19.1-7.4c-2.4-2.3-3.1-4-3.1-7.6v-2.2l1.2,2.3c1.4,2.8,2.9,4.1,7.1,6.2
		c5.1,2.6,10.9,3.9,19.4,4.5c2.2,0.2,4.1,0.3,4.1,0.4c0.1,0.1,0.3,0.7,0.4,1.5C67.8,62,65.5,62.6,57.3,61.6z"/>
	<path class="st2" d="M71.5,61.2c-1.5-0.3-1.6-0.4-1.7-2.1l-0.2-1.8l4.3-0.5c9.2-1.2,16.9-4.8,20-9.3l1.4-2.2v2.1
		c0,1.9-1.3,5.4-2,5.1c-0.1-0.1-0.8,0.5-1.3,1.4c-1.3,1.8-3.3,3.2-4.4,3.2c-0.4,0-1,0.3-1.3,0.7c-0.7,0.8-7.6,3.1-8.4,2.7
		c-0.4-0.1-0.7,0-0.9,0.2c-0.1,0.3-0.7,0.4-1.1,0.3c-0.4-0.1-1,0-1.1,0.2C74.5,61.7,73.9,61.7,71.5,61.2z"/>
	<path class="st2" d="M65.5,42.2c-2.9-1.1-3.2-1.5-3.2-3.1c0-1.2,0.4-1.8,1.5-2.6c0.9-0.5,2.4-1.1,3.5-1.3c1.9-0.3,2-0.3,1.3-1.1
		s-1.5-0.9-7.9-0.9c-6.5,0-7.1,0.1-7.7,0.9c-0.4,0.7-1.2,0.9-3.6,1c-1.6,0-3.1,0-3.2-0.2c-0.4-0.4,5-2.1,9.4-2.8
		c5.2-0.9,14.8-0.9,19.6,0c4,0.7,9.8,2.4,9.8,2.8c0,0.2-2.3,0.3-5.2,0.3s-5.2,0-5.2,0.1s0.5,0.6,1.2,1.1c0.9,0.7,1.1,1.3,1,2.5
		c-0.1,1.3-0.4,1.8-1.7,2.5C73.3,42.6,67.5,43,65.5,42.2z M70.9,40.4c0.9-0.5,0.7-0.5-1.5-0.6c-2.3,0-2.3,0-1.2,0.5
		C69.8,41,69.7,41,70.9,40.4z M70.7,37.7c1.3,0.4,1.3,0.4,0.6-0.2c-1.1-0.9-2.1-0.9-3.2,0c-0.8,0.6-0.8,0.7,0.2,0.2
		C69,37.4,69.7,37.4,70.7,37.7z"/>
</g>
<g id="layer105_1_">
	<path class="st1" d="M67.1,41.3c-2.3-0.4-4.3-1.7-4.1-2.6c0.6-3.2,11.2-3.7,12.9-0.5C77.1,40.3,71.7,42.2,67.1,41.3z M71.2,40.4
		c1.4-0.7,1.1-1.4-0.4-0.9c-0.6,0.2-1.6,0.3-2.1,0c-1.7-0.6-2.5,0-1,0.7C69.4,41,69.9,41,71.2,40.4z M66.2,38.6
		c-0.4-0.4-0.7-0.4-1.1,0s-0.3,0.5,0.5,0.5S66.6,39,66.2,38.6z M70.2,38.6c-0.4-0.4-0.7-0.4-1.1,0s-0.3,0.5,0.5,0.5
		S70.6,39,70.2,38.6z M74.3,38.6c-0.4-0.4-0.7-0.4-1.1,0s-0.3,0.5,0.5,0.5S74.7,39,74.3,38.6z M69.5,37.7c0.3,0,1,0.1,1.7,0.3
		c1.7,0.4,1.6-0.4-0.1-1c-1-0.4-1.7-0.4-2.7,0c-1.6,0.6-1.8,1.5-0.3,1C68.6,37.9,69.2,37.7,69.5,37.7z"/>
</g>
</svg>
