<?xml version="1.0" encoding="utf-8"?>
<!-- Generator: Adobe Illustrator 24.0.1, SVG Export Plug-In . SVG Version: 6.00 Build 0)  -->
<svg version="1.1" id="Layer_1" xmlns:v="https://vecta.io/nano"
	 xmlns="http://www.w3.org/2000/svg" xmlns:xlink="http://www.w3.org/1999/xlink" x="0px" y="0px" width="64px" height="64px"
	 viewBox="0 0 64 64" style="enable-background:new 0 0 64 64;" xml:space="preserve">
<style type="text/css">
	.st0{fill:#24C7D6;}
	.st1{fill-rule:evenodd;clip-rule:evenodd;fill:#606063;}
	.st2{fill:#BEBEBE;}
	.st3{fill:#FAF9FA;}
	.st4{fill-rule:evenodd;clip-rule:evenodd;fill:#633001;}
	.st5{fill:#FEDC90;}
	.st6{fill:#D1884F;}
	.st7{fill-rule:evenodd;clip-rule:evenodd;fill:url(#SVGID_1_);}
	.st8{fill:#9E7200;}
	.st9{fill:#F0B90B;}
</style>
<g id="layer102">
	<circle class="st0" cx="32" cy="32" r="32"/>
</g>
<path class="st1" d="M12.6,36l0,0.4c0,0.5,0,0.9,0.1,1.4h-0.1v0.7c0,0.3,0,0.7,0.1,1c0.8,6.6,9.2,11.8,19.3,11.8s18.6-5.2,19.3-11.8
	c0-0.3,0.1-0.7,0.1-1v-0.7h-0.1c0.1-0.5,0.1-0.9,0.1-1.4c0-0.1,0-0.2,0-0.4c-0.3-6.9-8.9-12.5-19.4-12.5S12.9,29.1,12.6,36z M11,36
	c0.1-4.2,2.8-7.8,6.4-10.2c3.8-2.5,8.9-4,14.5-4s10.7,1.5,14.5,4c3.7,2.4,6.3,6,6.4,10.2h0v2.4c0,4.4-2.7,8.1-6.5,10.5
	c-3.8,2.5-8.9,4-14.5,4s-10.7-1.5-14.5-4c-3.8-2.5-6.5-6.2-6.5-10.5L11,36L11,36L11,36z"/>
<path class="st2" d="M51.4,38.5c0,7.1-8.7,12.8-19.4,12.8s-19.4-5.7-19.4-12.8v-2h38.8C51.4,36.4,51.4,38.5,51.4,38.5z"/>
<path class="st3" d="M51.4,36.4c0,7.1-8.7,12.8-19.4,12.8s-19.4-5.7-19.4-12.8S21.3,23.6,32,23.6S51.4,29.3,51.4,36.4L51.4,36.4z"/>
<path class="st4" d="M15.6,32.8L15.6,32.8c0,0.6,0.1,1.2,0.2,1.7h-0.2v0.8c0,0.3,0,0.7,0.1,1c0.7,4.9,6.9,8.7,14.5,8.7
	s13.7-3.8,14.5-8.7c0-0.3,0.1-0.7,0.1-1v-0.8h-0.2c0.1-0.5,0.2-1.1,0.2-1.7v0v0c0-5.3-6.5-9.6-14.5-9.6S15.6,27.4,15.6,32.8
	L15.6,32.8z M14,32.8L14,32.8v2.5c0,3.5,2.1,6.4,5,8.3c2.9,1.9,6.8,3.1,11.1,3.1s8.2-1.1,11.1-3.1c2.9-1.9,5-4.8,5-8.3v-2.5
	c0-3.5-2.1-6.4-5-8.3c-2.9-1.9-6.8-3.1-11.1-3.1s-8.2,1.1-11.1,3.1C16.1,26.4,14,29.3,14,32.8L14,32.8z"/>
<path class="st5" d="M44.6,35.2c0,5.3-6.5,9.7-14.5,9.7s-14.5-4.3-14.5-9.7V33h29.1V35.2z"/>
<path class="st6" d="M44.6,32.8c0,5.3-6.5,9.7-14.5,9.7s-14.5-4.3-14.5-9.7s6.5-9.7,14.5-9.7S44.6,27.4,44.6,32.8z"/>
<path class="st4" d="M20,27.6L20,27.6c0,0.6,0.1,1.2,0.2,1.7H20V30c0,0.3,0,0.7,0.1,1c0.7,4.9,6.9,8.7,14.5,8.7s13.7-3.8,14.5-8.7
	c0-0.3,0.1-0.7,0.1-1v-0.8h-0.2c0.1-0.5,0.2-1.1,0.2-1.7v0v0c0-5.3-6.5-9.6-14.5-9.6S20,22.2,20,27.6L20,27.6z M18.4,27.6L18.4,27.6
	V30c0,3.5,2.1,6.4,5,8.3c2.9,1.9,6.8,3.1,11.1,3.1s8.2-1.1,11.1-3.1c2.9-1.9,5-4.8,5-8.3v-2.5c0-3.5-2.1-6.4-5-8.3
	c-2.9-1.9-6.8-3.1-11.1-3.1s-8.2,1.1-11.1,3.1C20.5,21.2,18.4,24.1,18.4,27.6z"/>
<path class="st5" d="M49,30c0,5.3-6.5,9.7-14.5,9.7S20,35.4,20,30v-2.3H49L49,30L49,30z"/>
<path class="st6" d="M49,27.6c0,5.3-6.5,9.7-14.5,9.7S20,32.9,20,27.6s6.5-9.7,14.5-9.7S49,22.3,49,27.6L49,27.6z"/>
<path class="st4" d="M15.6,22.4L15.6,22.4c0,0.6,0.1,1.2,0.2,1.7h-0.2v0.8c0,0.3,0,0.7,0.1,1c0.7,4.9,6.9,8.7,14.5,8.7
	s13.7-3.8,14.5-8.7c0-0.3,0.1-0.7,0.1-1v-0.8h-0.2c0.1-0.5,0.2-1.1,0.2-1.7v0v0c0-5.3-6.5-9.6-14.5-9.6S15.6,17,15.6,22.4z M14,22.4
	L14,22.4v2.5c0,3.5,2.1,6.4,5,8.3c2.9,1.9,6.8,3.1,11.1,3.1s8.2-1.1,11.1-3.1c2.9-1.9,5-4.8,5-8.3v-2.5c0-3.5-2.1-6.4-5-8.3
	c-2.9-1.9-6.8-3.1-11.1-3.1s-8.2,1.1-11.1,3.1C16.1,16,14,18.9,14,22.4z"/>
<path class="st5" d="M44.6,24.8c0,5.3-6.5,9.7-14.5,9.7s-14.5-4.3-14.5-9.7v-2.3h29.1V24.8z"/>
<path class="st6" d="M44.6,22.4c0,5.3-6.5,9.7-14.5,9.7s-14.5-4.3-14.5-9.7s6.5-9.7,14.5-9.7S44.6,17.1,44.6,22.4z"/>
<g>
	
		<linearGradient id="SVGID_1_" gradientUnits="userSpaceOnUse" x1="27.7652" y1="48.6639" x2="27.7652" y2="28.5787" gradientTransform="matrix(1 0 0 -1 0 66)">
		<stop  offset="0" style="stop-color:#9F4A08"/>
		<stop  offset="0.37" style="stop-color:#7D3900"/>
		<stop  offset="1" style="stop-color:#8D4104"/>
	</linearGradient>
	<path class="st7" d="M19,23c0,1.8,1.2,3.4,3.1,4.4l-1.3,2.4v6.2c0,0.8,0.6,1.5,1.4,1.5c0.8,0,1.4-0.7,1.4-1.5v-4.9l1.4-2.6
		c0.9,0.2,1.9,0.3,2.9,0.3c4.8,0,8.7-2.6,8.7-5.9s-3.9-5.9-8.7-5.9S19,19.8,19,23z"/>
	<path class="st4" d="M22.1,27.4l-0.6-0.4C20,26,19,24.6,19,23c0-3.2,3.9-5.9,8.7-5.9s8.7,2.6,8.7,5.9s-3.9,5.9-8.7,5.9
		c-1,0-1.9-0.1-2.9-0.3l-1.4,2.6v4.9c0,0.8-0.6,1.5-1.4,1.5c-0.8,0-1.4-0.7-1.4-1.5v-6.2L22.1,27.4L22.1,27.4z M19.4,29.9v6.2
		c0,1.7,1.2,3,2.8,3s2.8-1.3,2.8-3v-4.5l0.7-1.4c0.7,0.1,1.4,0.2,2.1,0.2c2.6,0,5.1-0.7,6.9-1.9c1.8-1.2,3.2-3.1,3.2-5.4
		s-1.4-4.2-3.2-5.4c-1.8-1.2-4.3-1.9-6.9-1.9s-5.1,0.7-6.9,1.9c-1.8,1.2-3.2,3.1-3.2,5.4c0,2.1,1.1,3.7,2.6,5l-0.6,1.2
		c-0.1,0.1-0.1,0.2-0.1,0.3C19.4,29.6,19.4,29.8,19.4,29.9L19.4,29.9z"/>
</g>
<g>
	<path class="st8" d="M21.7,20.5c0,1.7,2,3,4.4,3s4.4-1.4,4.4-3s-2-3-4.4-3S21.7,18.9,21.7,20.5z"/>
	<path class="st8" d="M21.7,19.2h8.8v1.3h-8.8C21.7,20.5,21.7,19.2,21.7,19.2z"/>
</g>
<path class="st9" d="M21.7,19.2c0,1.7,2,3,4.4,3s4.4-1.4,4.4-3s-2-3-4.4-3S21.7,17.6,21.7,19.2z"/>
<path class="st8" d="M24.5,18.9l1.2-0.9c0.3-0.2,0.6-0.2,0.9,0l1.2,0.9c0.2,0.2,0.2,0.6,0,0.7l-1.2,0.9c-0.3,0.2-0.6,0.2-0.9,0
	l-1.2-0.9C24.2,19.4,24.2,19,24.5,18.9z"/>
<path class="st4" d="M22.3,15.8c1-0.7,2.4-1.1,3.8-1.1c1.4,0,2.8,0.4,3.8,1.1c1,0.7,1.9,1.9,1.9,3.4v1.3c0,1.5-0.9,2.7-1.9,3.4
	c-1,0.7-2.4,1.1-3.8,1.1c-1.4,0-2.8-0.4-3.8-1.1c-1-0.7-1.9-1.9-1.9-3.4v-1.3C20.4,17.7,21.3,16.5,22.3,15.8z M26.1,16.2
	c-2.4,0-4.4,1.4-4.4,3v1.3c0,1.7,2,3,4.4,3s4.4-1.4,4.4-3v-1.3C30.5,17.6,28.5,16.2,26.1,16.2z"/>
</svg>
