<?xml version="1.0" encoding="utf-8"?>
<!-- Generator: Adobe Illustrator 24.0.1, SVG Export Plug-In . SVG Version: 6.00 Build 0)  -->
<svg version="1.1" id="Layer_1" xmlns:v="https://vecta.io/nano"
	 xmlns="http://www.w3.org/2000/svg" xmlns:xlink="http://www.w3.org/1999/xlink" x="0px" y="0px" width="64px" height="64px"
	 viewBox="0 0 64 64" style="enable-background:new 0 0 64 64;" xml:space="preserve">
<style type="text/css">
	.st0{fill:#424451;}
	.st1{fill:#FFC31A;}
	.st2{fill:#FFD538;}
	.st3{fill:#FCCD35;}
</style>
<g id="layer102">
	<circle class="st0" cx="32" cy="32" r="32"/>
	<path class="st1" d="M34.2,32.3c-2.6,0.1-5.6,0-8.4-0.3c-8.7-1-15-4-16.7-7.8c-0.1-0.3-0.2-0.5-0.3-0.4c-0.1,0.2-0.6,4.4-0.7,6.1
		c-0.2,1.6-0.2,5.1,0,6.3c0.4,3.3,1.5,5.6,3.5,7.6C15,47.3,21,49.4,29,49.9c2.5,0.2,8.7,0.1,9.6-0.1l0.2,0v-9.9
		c0.3-2.6,0.7-5.2,1-7.9C39,32,36,32.2,34.2,32.3z"/>
	<path class="st2" d="M55.9,27.5c-0.1-1-0.4-2.8-0.4-2.8c0,0-4.6,0-10.1,0l-10.1,0l2.5,3.6c1.4,2,2.4,3.6,2.4,3.6
		c-0.3,2.6-0.7,5.3-1,7.9h8c6.5,0,8.2,0,8.2-0.1c0.1-0.3,0.4-2.9,0.6-4.6C56,33.1,56.1,29.1,55.9,27.5z M45.2,37.4
		c-0.2,0.1-0.5,0.2-0.8,0.2c-1.8,0-2.5-2.5-1-3.5c0.6-0.4,1.4-0.3,2.1,0.2c0.3,0.3,0.7,1,0.7,1.4C46.3,36.4,45.8,37.1,45.2,37.4z
		 M49.9,31.9c-0.3,0.1-0.6,0.2-1,0.2c-2.2,0-3.2-2.8-1.6-4.3c1.1-1,3-0.7,3.7,0.7c0.2,0.3,0.2,0.6,0.2,1.1
		C51.2,30.8,50.8,31.4,49.9,31.9z M52.6,36.5c-0.6,0.4-1.4,0.2-1.7-0.4c-0.2-0.4-0.2-1.1,0-1.3c0.5-0.7,1.6-0.7,2,0
		C53.3,35.4,53.1,36.2,52.6,36.5z"/>
	<path class="st3" d="M28.7,30.8c-8.9-0.5-16.5-3.4-18.2-7c-0.3-0.6-0.3-0.8-0.3-1.4c0-0.6,0-0.8,0.3-1.4c1.5-3.1,7.3-5.7,14.9-6.7
		c3.3-0.4,8-0.5,10.8-0.2c6.5,0.7,12.2,2.5,15.7,5c1.1,0.7,2.3,2.1,2.7,2.9c0.2,0.3,0.3,0.7,0.3,0.8l0.1,0.2l-11.3,0l-11.3,0
		l2.6,3.7c1.4,2.1,2.5,3.7,2.5,3.8C37.3,30.8,30.7,30.9,28.7,30.8z M31.9,28.5c0.7-0.3,0.7-0.8-0.1-1.1c-1-0.4-2.7-0.1-2.7,0.5
		c0,0.3,0.2,0.5,0.6,0.7C30.3,28.7,31.5,28.6,31.9,28.5z M20.3,26.1c0.3-0.1,0.7-0.4,0.9-0.5c0.4-0.5,0.4-0.8,0-1.3
		c-1-1-3.8-1-4.9-0.1c-0.8,0.8-0.1,1.8,1.5,2.1C18.4,26.4,19.7,26.3,20.3,26.1z M33.8,20.3c0.5-0.2,0.5-0.6,0-0.8
		c-0.5-0.3-2.1-0.3-2.5-0.1c-0.5,0.3-0.6,0.5-0.3,0.7C31.3,20.6,33,20.7,33.8,20.3z M41.5,20.3c0.7-0.2,1.1-0.7,1.1-1.1
		c0-0.4-0.3-0.8-0.9-1.1c-0.6-0.3-2-0.3-2.8-0.1c-0.7,0.2-1.3,0.7-1.3,1.2c0,0.4,0.6,0.9,1.2,1.1C39.4,20.5,40.9,20.5,41.5,20.3z
		 M25.4,18.8c0.5-0.2,1.1-0.7,1.1-1c0-0.1-0.1-0.4-0.3-0.5c-0.9-0.9-3.3-0.9-4.4-0.1c-0.3,0.2-0.4,0.3-0.4,0.6
		c0,0.6,0.8,1.1,1.9,1.3C23.8,19.1,24.9,19,25.4,18.8z"/>
</g>
</svg>
