<?xml version="1.0" encoding="utf-8"?>
<!-- Generator: Adobe Illustrator 24.0.1, SVG Export Plug-In . SVG Version: 6.00 Build 0)  -->
<svg version="1.1" id="Layer_1" xmlns="http://www.w3.org/2000/svg" xmlns:xlink="http://www.w3.org/1999/xlink" x="0px" y="0px"
	 width="240px" height="128px" viewBox="0 0 240 128" style="enable-background:new 0 0 240 128;" xml:space="preserve">
<style type="text/css">
	.st0{fill:#EEC542;stroke:#424451;stroke-width:5;stroke-miterlimit:10;}
	.st1{fill:#424451;}
</style>
<circle class="st0" cx="176" cy="64" r="61.5"/>
<circle class="st0" cx="64" cy="64" r="61.5"/>
<path class="st1" d="M155.4,64.1l-8.4,8.4l-8.5-8.4l8.4-8.4L155.4,64.1z M175.9,43.5l14.6,14.6l8.4-8.4l-23-23.1l-23,23l8.4,8.4
	L175.9,43.5z M205.1,55.7l-8.4,8.4l8.4,8.4l8.4-8.4L205.1,55.7z M175.9,84.6L161.4,70l-8.4,8.4l23,23l23-23l-8.4-8.4L175.9,84.6z
	 M175.9,72.5l8.4-8.3l-8.4-8.4l-8.5,8.4L175.9,72.5z"/>
<g id="layer102">
	<path class="st1" d="M67.4,64.5c-4,0.2-8.7,0-13.1-0.5c-13.6-1.6-23.5-6.2-26.1-12.2c-0.2-0.5-0.4-0.7-0.4-0.6
		c-0.1,0.3-0.9,6.9-1.1,9.5c-0.2,2.5-0.2,8,0,9.8c0.7,5.2,2.3,8.7,5.4,11.9c5.3,5.4,14.7,8.7,27.3,9.5c4,0.3,13.6,0.1,15-0.2
		l0.3-0.1V76.2c0.5-4.1,1.1-8.2,1.6-12.3C75,64,70.2,64.4,67.4,64.5z"/>
	<path class="st1" d="M101.3,56.9c-0.2-1.6-0.6-4.3-0.7-4.4c0,0-7.1,0-15.8,0H69.1l3.8,5.6c2.1,3.1,3.8,5.6,3.7,5.7
		c-0.5,4.1-1.1,8.2-1.6,12.4h12.5c10.1,0,12.8,0,12.9-0.2c0.1-0.4,0.6-4.5,0.9-7.1C101.5,65.7,101.6,59.4,101.3,56.9z M84.6,72.4
		c-0.3,0.1-0.9,0.3-1.2,0.3c-2.9,0-3.9-4-1.5-5.5c1-0.6,2.3-0.5,3.2,0.3c0.5,0.4,1.1,1.6,1.1,2.2C86.3,70.8,85.6,72,84.6,72.4z
		 M91.9,63.9c-0.4,0.2-0.9,0.3-1.6,0.3c-3.5,0-5.1-4.3-2.5-6.7c1.8-1.6,4.7-1.1,5.8,1.2c0.3,0.5,0.3,0.9,0.3,1.7
		C94,62.1,93.4,63.1,91.9,63.9z M96.1,71c-0.9,0.6-2.2,0.3-2.7-0.6c-0.3-0.6-0.3-1.7,0-2.1c0.7-1.1,2.5-1,3.2,0.1
		C97.2,69.2,97,70.5,96.1,71z"/>
	<path class="st1" d="M58.9,62.1C45,61.3,33.2,56.7,30.5,51.2C30.1,50.3,30,50,30,49.1c0-0.9,0.1-1.2,0.5-2.1
		c2.3-4.9,11.4-9,23.3-10.5c5.2-0.7,12.5-0.8,16.9-0.3c10.1,1.1,19.1,3.9,24.6,7.7c1.6,1.1,3.7,3.3,4.2,4.5c0.3,0.5,0.5,1.1,0.5,1.3
		l0.1,0.4H82.4H64.7l4,5.8c2.2,3.2,4,5.9,3.9,5.9C72.3,62.1,62,62.3,58.9,62.1z M63.8,58.5c1.1-0.5,1.1-1.2-0.1-1.7
		c-1.5-0.6-4.2-0.1-4.2,0.7c0,0.4,0.4,0.8,1,1C61.3,58.8,63.2,58.7,63.8,58.5z M45.7,54.8c0.5-0.2,1.1-0.6,1.4-0.9
		c0.7-0.7,0.7-1.3-0.1-2c-1.5-1.6-6-1.6-7.6-0.1c-1.2,1.2-0.1,2.8,2.3,3.3C42.7,55.3,44.7,55.2,45.7,54.8z M66.7,45.7
		c0.8-0.4,0.8-0.9,0-1.3c-0.7-0.5-3.2-0.5-3.9-0.1s-0.9,0.7-0.5,1.1C63,46.1,65.5,46.3,66.7,45.7z M78.8,45.7
		c1.1-0.4,1.8-1.1,1.8-1.8s-0.4-1.2-1.4-1.7c-1-0.4-3.2-0.5-4.4-0.2c-1,0.3-2,1.2-2,1.8s0.9,1.5,1.9,1.8C75.6,46,77.8,46,78.8,45.7z
		 M53.7,43.4c0.8-0.3,1.8-1.1,1.8-1.6c0-0.2-0.2-0.6-0.5-0.8c-1.4-1.3-5.2-1.5-6.8-0.2c-0.5,0.4-0.6,0.5-0.6,1c0,0.9,1.2,1.7,3,2
		C51.2,43.9,52.9,43.7,53.7,43.4z"/>
</g>
</svg>
