<?xml version="1.0" encoding="utf-8"?>
<!-- Generator: Adobe Illustrator 24.0.1, SVG Export Plug-In . SVG Version: 6.00 Build 0)  -->
<svg version="1.1" id="Layer_1" xmlns="http://www.w3.org/2000/svg" xmlns:xlink="http://www.w3.org/1999/xlink" x="0px" y="0px"
	 width="240px" height="128px" viewBox="0 0 240 128" style="enable-background:new 0 0 240 128;" xml:space="preserve">
<style type="text/css">
	.st0{fill:#EEC542;stroke:#424451;stroke-width:5;stroke-miterlimit:10;}
	.st1{fill:#424451;}
</style>
<circle class="st0" cx="176" cy="64" r="61.5"/>
<circle class="st0" cx="64" cy="64" r="61.5"/>
<path class="st1" d="M155.4,64.1l-8.4,8.4l-8.5-8.4l8.4-8.4L155.4,64.1z M175.9,43.5l14.6,14.6l8.4-8.4l-23-23.1l-23,23l8.4,8.4
	L175.9,43.5z M205.1,55.7l-8.4,8.4l8.4,8.4l8.4-8.4L205.1,55.7z M175.9,84.6L161.4,70l-8.4,8.4l23,23l23-23l-8.4-8.4L175.9,84.6z
	 M175.9,72.5l8.4-8.3l-8.4-8.4l-8.5,8.4L175.9,72.5z"/>
<path class="st1" d="M64.8,67.5h18.6c0.4,0,0.6,0,0.6-0.5c0.2-1.9,0.2-3.8,0-5.7c0-0.4-0.2-0.5-0.6-0.5h-37c-0.5,0-0.6,0.2-0.6,0.6
	v5.4c0,0.7,0,0.7,0.7,0.7H64.8L64.8,67.5z M81.9,54.4c0.1-0.1,0.1-0.3,0-0.4c-0.3-0.7-0.7-1.3-1.1-1.9c-0.6-1-1.4-2-2.3-2.8
	c-0.4-0.5-0.9-1-1.4-1.4c-2.6-2.3-5.8-3.8-9.2-4.7c-1.7-0.4-3.5-0.6-5.2-0.6H46.3c-0.5,0-0.5,0.2-0.5,0.6V54c0,0.5,0,0.6,0.6,0.6
	h35.3c0,0,0.3-0.1,0.4-0.2H81.9L81.9,54.4z M81.9,73.8c-0.5-0.1-1-0.1-1.6,0H46.4c-0.5,0-0.6,0-0.6,0.6v10.6c0,0.5,0,0.6,0.6,0.6
	h15.7c0.7,0.1,1.5,0,2.2-0.2c2.3-0.2,4.5-0.7,6.6-1.5c0.8-0.3,1.5-0.6,2.2-1h0.2c3.7-1.9,6.7-4.9,8.5-8.6
	C81.9,74.4,82.1,74,81.9,73.8L81.9,73.8z M39.6,91.2V91v-7.1v-2.4v-7.2c0-0.4,0-0.5-0.5-0.5h-6.6c-0.4,0-0.5,0-0.5-0.5v-5.8h7.1
	c0.4,0,0.6,0,0.6-0.5v-5.8c0-0.4,0-0.5-0.5-0.5h-6.6c-0.4,0-0.5,0-0.5-0.5v-5.4c0-0.3,0-0.4,0.5-0.4h6.6c0.5,0,0.6,0,0.6-0.6V37.4
	c0-0.5,0-0.6,0.6-0.6h22.9c1.7,0.1,3.3,0.2,5,0.6c3.4,0.6,6.6,1.8,9.6,3.5c2,1.2,3.8,2.6,5.4,4.2c1.2,1.3,2.3,2.6,3.3,4.1
	c1,1.5,1.8,3,2.4,4.7c0.1,0.4,0.5,0.7,0.9,0.6h5.5c0.7,0,0.7,0,0.7,0.7v5c0,0.5-0.2,0.6-0.7,0.6H91c-0.4,0-0.6,0-0.5,0.6
	c0.2,1.9,0.2,3.7,0,5.6c0,0.5,0,0.6,0.6,0.6h4.8c0.2,0.3,0,0.6,0,0.8c0,0.4,0,0.7,0,1.1v3.7c0,0.5-0.2,0.7-0.6,0.7h-5.8
	c-0.4-0.1-0.8,0.2-0.9,0.6c-1.4,3.6-3.6,6.8-6.4,9.4c-1,0.9-2.1,1.8-3.3,2.6c-1.2,0.7-2.4,1.4-3.7,2c-2.3,1-4.7,1.8-7.2,2.3
	c-2.4,0.4-4.8,0.6-7.2,0.6L39.6,91.2L39.6,91.2L39.6,91.2z"/>
</svg>
