<?xml version="1.0" encoding="utf-8"?>
<!-- Generator: Adobe Illustrator 24.0.1, SVG Export Plug-In . SVG Version: 6.00 Build 0)  -->
<svg version="1.1" id="Layer_1" xmlns="http://www.w3.org/2000/svg" xmlns:xlink="http://www.w3.org/1999/xlink" x="0px" y="0px"
	 width="240px" height="128px" viewBox="0 0 240 128" style="enable-background:new 0 0 240 128;" xml:space="preserve">
<style type="text/css">
	.st0{fill:#EEC542;stroke:#424451;stroke-width:5;stroke-miterlimit:10;}
	.st1{fill:#424451;}
	.st2{fill:#EEC542;}
</style>
<circle class="st0" cx="176" cy="64" r="61.5"/>
<circle class="st0" cx="64" cy="64" r="61.5"/>
<path class="st1" d="M155.4,64.1l-8.4,8.4l-8.5-8.4l8.4-8.4L155.4,64.1z M175.9,43.5l14.6,14.6l8.4-8.4l-23-23.1l-23,23l8.4,8.4
	L175.9,43.5z M205.1,55.7l-8.4,8.4l8.4,8.4l8.4-8.4L205.1,55.7z M175.9,84.6L161.4,70l-8.4,8.4l23,23l23-23l-8.4-8.4L175.9,84.6z
	 M175.9,72.5l8.4-8.3l-8.4-8.4l-8.5,8.4L175.9,72.5z"/>
<g id="layer101">
	<path class="st1" d="M64.4,93.5c-4.3-0.6-10.8-2.7-15.9-5.3c-6.4-3.3-13.5-9.8-18.3-17c-4.7-6.8-8.7-17.6-8.7-23.1
		c0-4.7,2.3-9.3,6-11.7c4.7-3.2,10.1-2.8,14.1,0.9c2,1.9,2.8,3.3,4.4,7.4c4,10.5,9.1,16.8,16.8,20.3c3.5,1.6,6,2.1,10.1,2.1
		c5.2,0,9-1.1,14.1-4c5.8-3.3,10.5-3.5,14.7-0.6c1.9,1.3,3.7,3.8,4.3,5.8c0.6,1.9,0.5,5.1-0.1,7.1c-1.1,3.8-4.4,7.9-8.1,10.3
		c-4.2,2.8-12.4,6-18.4,7.1C76.2,93.7,67.7,94,64.4,93.5z"/>
</g>
<g id="layer102">
	<path class="st1" d="M65.9,91.9c-7.4-0.8-15.2-3.8-21.5-8.2c-3-2.1-8.9-7.9-11.1-10.8c-4.9-6.6-9.2-16.5-10-23
		c-0.8-6.4,2.7-12,8.4-13.5c2.5-0.6,3.9-0.6,6.1,0.4c3.2,1.5,4.9,3.7,6.6,8.6c4.3,12.2,12.8,20.8,22.8,23c1.6,0.4,3.3,0.6,5.4,0.6
		c5.4,0,9.2-1.1,14.7-4c3.9-2.1,5.5-2.6,8.6-2.5c2.5,0,2.5,0.1,4.3,1.2c3.1,2.1,4.3,4.4,4.4,8.1c0.1,2.6-0.6,4.5-2.1,6.9
		c-2.3,3.5-5,5.6-10,8C84,91.1,74.6,92.8,65.9,91.9z M101.7,69.6c0.4-1.3-0.1-2.7-1.1-3.4c-0.9-0.6-3.5-0.4-4,0.2
		c-0.4,0.4-0.3,0.4,1.1,0.6c2.1,0.3,2.9,1,3,2.9c0.1,1.2,0.2,1.4,0.4,1.1C101.3,70.9,101.6,70.2,101.7,69.6z M31.2,39.3
		c0.5-0.1,1.1-0.1,1.9,0.1c1.5,0.5,1.6,0,0.3-1c-1.3-1.1-2.9-1-4.1,0.2c-0.8,0.8-0.9,1.1-0.9,2.3c0,0.8,0.1,1.6,0.2,1.6
		c0.1,0.1,0.6-0.6,1-1.5C30.2,40,30.6,39.5,31.2,39.3z"/>
</g>
<g id="layer103">
	<path class="st2" d="M65.9,91.9c-7.4-0.8-15.2-3.8-21.5-8.2c-3-2.1-8.9-7.9-11.1-10.8c-3-4-5.6-8.9-7.4-13.8
		c-3-8.1-3.3-12.4-1.3-16.6c3.3-6.8,11.6-8.6,16.4-3.5c1.5,1.6,2.3,3.2,3.5,6.4c4.3,12.2,12.8,20.8,22.8,23c1.6,0.4,3.3,0.6,5.4,0.6
		c5.4,0,9.2-1.1,14.7-4c3.9-2.1,5.5-2.6,8.7-2.5c1.4,0,2.6,0.1,2.7,0.3c0.1,0.1,0.6,0.5,1.3,0.9c2.5,1.3,4.1,3.7,4.6,6.7
		c0.6,3.8-0.9,7.6-4.3,11.3c-1.8,1.9-4,3.5-7.8,5.2C84,91.1,74.6,92.8,65.9,91.9z M101.7,69.6c0.4-1.3-0.1-2.7-1.1-3.4
		c-0.9-0.6-3.5-0.4-4,0.2c-0.4,0.4-0.3,0.4,1.1,0.6c2.1,0.3,2.9,1,3,2.9c0.1,1.2,0.2,1.4,0.4,1.1C101.3,70.9,101.6,70.2,101.7,69.6z
		 M31.2,39.3c0.5-0.1,1.1-0.1,1.9,0.1c1.5,0.5,1.6,0,0.3-1c-1.3-1.1-2.9-1-4.1,0.2c-0.8,0.8-0.9,1.1-0.9,2.3c0,0.8,0.1,1.6,0.2,1.6
		c0.1,0.1,0.6-0.6,1-1.5C30.2,40,30.6,39.5,31.2,39.3z"/>
</g>
<path class="st1" d="M35,54.6c0.3,0.2,1.9,1.3,1.7,1.8c-0.2,0.5-1.7,0.6-2.8-0.1c-1.1-0.7-1.5-2.2-1.1-2.6
	C33.2,53.5,34.6,54.4,35,54.6z"/>
<path class="st1" d="M68.8,77.3c0.4,0.8-0.9,2.1-0.9,2.3c-1.3,1.5-3.3,1.5-4.4,1.6c-0.6,0-4.5,0.1-6.3-2.6c-0.1-0.2-1.1-1.6-0.6-2.3
	c0.6-0.8,2.6,0.8,6.2,1C66.2,77.5,68.3,76.4,68.8,77.3z"/>
<circle class="st1" cx="84.3" cy="78" r="0.6"/>
<ellipse class="st1" cx="43.3" cy="70.9" rx="1.7" ry="1.1"/>
<ellipse class="st1" cx="77.3" cy="73.4" rx="1.1" ry="0.4"/>
<path class="st1" d="M71,88.2c0.1,0.1,0.1,0.5,0,0.7c-0.4,0.9-1.9,0.7-2.1,0.7c-0.6-0.1-1.7-0.3-1.8-0.8c0-0.2,0.1-0.5,0.4-0.6
	c0.4-0.3,0.9,0.2,1.7,0.2C70.1,88.5,70.8,87.9,71,88.2z"/>
<circle class="st1" cx="99.5" cy="76.4" r="0.4"/>
</svg>
