<?xml version="1.0" encoding="utf-8"?>
<!-- Generator: Adobe Illustrator 24.0.1, SVG Export Plug-In . SVG Version: 6.00 Build 0)  -->
<svg version="1.1" id="Layer_1" xmlns="http://www.w3.org/2000/svg" xmlns:xlink="http://www.w3.org/1999/xlink" x="0px" y="0px"
	 width="240px" height="128px" viewBox="0 0 240 128" style="enable-background:new 0 0 240 128;" xml:space="preserve">
<style type="text/css">
	.st0{fill:#EEC542;stroke:#424451;stroke-width:5;stroke-miterlimit:10;}
	.st1{fill:#424451;}
</style>
<circle class="st0" cx="176" cy="64" r="61.5"/>
<circle class="st0" cx="64" cy="64" r="61.5"/>
<g id="layer101_1_">
	<path class="st1" d="M42.8,101.4c-1.1-0.2-2.6-0.8-3.6-1.5c-0.6-0.4-1.5-1.5-1.8-1.9c-0.1-0.1-0.2-0.5-0.4-0.9
		c-0.6-1.3-0.6-0.5-0.6-17.1c0-14.8,0-15,0.2-15.6c0.4-1.2,0.9-2,1.8-2.9c0.5-0.5,1.1-1,1.4-1.2c1.1-0.7,2.5-1.1,3.6-1.1h0.5l0-8
		c0-7.7,0-8.1,0.2-9.1c1.4-7.6,7.2-13.4,15.1-15.2c1.7-0.4,2.6-0.5,4.9-0.5c2.3,0,3.2,0.1,5.3,0.6c3.6,0.9,7.1,3,9.6,5.6
		c2.3,2.4,4,5.6,4.7,8.7c0.4,1.7,0.4,2.6,0.4,10.3v7.5h0.6c1.1,0,2.8,0.6,4,1.4c1.5,1,2.6,2.7,2.9,4.4c0.1,0.4,0.1,5.2,0.1,15.7
		l0,15.1l-0.2,0.6c-0.5,1.2-0.9,2-1.7,2.8c-0.8,0.8-1.5,1.3-2.6,1.7c-1.4,0.6-0.3,0.5-23,0.5C52.5,101.5,42.9,101.5,42.8,101.4z
		 M85.1,96.7c0.7-0.3,1-0.5,1.3-1.1l0.3-0.5l0-14.7V65.6l-0.2-0.4c-0.3-0.5-0.9-1-1.4-1.2c-0.2-0.1-7.1-0.1-21.1-0.1H43.2l-0.5,0.3
		c-0.5,0.3-1,0.8-1.2,1.3c-0.1,0.2-0.1,4.2-0.1,15c0,14,0,14.7,0.2,15.1c0.1,0.2,0.4,0.5,0.6,0.7c0.8,0.7-1,0.7,21.9,0.7
		C84.5,96.9,84.6,96.9,85.1,96.7z M79.1,51.6c0-5.1,0-8-0.1-8.4c-0.3-2-1.1-4-2.3-5.7c-0.7-1-2.8-3-3.8-3.7c-3.2-2.1-7-3-10.7-2.6
		c-3.7,0.4-6.8,1.9-9.3,4.4c-2,2-3.2,4.1-3.8,6.8c-0.2,0.9-0.2,1.1-0.2,9l0,8.1H64h15.1L79.1,51.6L79.1,51.6z"/>
	<path class="st1" d="M69.1,82.7c0,2.8-2.3,5.1-5.1,5.1c-2.8,0-5.1-2.3-5.1-5.1c0-1.9,1.1-3.6,2.7-4.5V76c0-3.2,0-3.4,0.7-4.1
		c1-1,2.5-1,3.5,0c0.7,0.7,0.7,0.8,0.7,4v2.3C68.1,79,69.1,80.7,69.1,82.7z"/>
</g>
<g id="layer102">
	<path class="st1" d="M179.4,64.5c-4,0.2-8.7,0-13.1-0.5c-13.6-1.6-23.5-6.2-26.1-12.2c-0.2-0.5-0.4-0.7-0.4-0.6
		c-0.1,0.3-0.9,6.9-1.1,9.5c-0.2,2.5-0.2,8,0,9.8c0.7,5.2,2.3,8.7,5.4,11.9c5.3,5.4,14.7,8.7,27.3,9.5c4,0.3,13.6,0.1,15-0.2
		l0.3-0.1V76.2c0.5-4.1,1.1-8.2,1.6-12.3C187,64,182.2,64.4,179.4,64.5z"/>
	<path class="st1" d="M213.3,56.9c-0.2-1.6-0.6-4.3-0.7-4.4c0,0-7.1,0-15.8,0l-15.7,0l3.8,5.6c2.1,3.1,3.8,5.6,3.7,5.7
		c-0.5,4.1-1.1,8.2-1.6,12.4l12.5,0c10.1,0,12.8,0,12.9-0.2c0.1-0.4,0.6-4.5,0.9-7.1C213.5,65.7,213.6,59.4,213.3,56.9z M196.6,72.4
		c-0.3,0.1-0.9,0.3-1.2,0.3c-2.9,0-3.9-4-1.5-5.5c1-0.6,2.3-0.5,3.2,0.3c0.5,0.4,1.1,1.6,1.1,2.2C198.3,70.8,197.6,72,196.6,72.4z
		 M203.9,63.9c-0.4,0.2-0.9,0.3-1.6,0.3c-3.5,0-5.1-4.3-2.5-6.7c1.8-1.6,4.7-1.1,5.8,1.2c0.3,0.5,0.3,0.9,0.3,1.7
		C206,62.1,205.4,63.1,203.9,63.9z M208.1,71c-0.9,0.6-2.2,0.3-2.7-0.6c-0.3-0.6-0.3-1.7,0-2.1c0.7-1.1,2.5-1,3.2,0.1
		C209.2,69.2,209,70.5,208.1,71z"/>
	<path class="st1" d="M170.9,62.1c-13.9-0.8-25.7-5.4-28.4-10.9c-0.4-0.9-0.5-1.2-0.5-2.1c0-0.9,0.1-1.2,0.5-2.1
		c2.3-4.9,11.4-9,23.3-10.5c5.2-0.7,12.5-0.8,16.9-0.3c10.1,1.1,19.1,3.9,24.6,7.7c1.6,1.1,3.7,3.3,4.2,4.5c0.3,0.5,0.5,1.1,0.5,1.3
		l0.1,0.4l-17.7,0l-17.7,0l4,5.8c2.2,3.2,4,5.9,3.9,5.9C184.3,62.1,174,62.3,170.9,62.1z M175.8,58.5c1.1-0.5,1.1-1.2-0.1-1.7
		c-1.5-0.6-4.2-0.1-4.2,0.7c0,0.4,0.4,0.8,1,1C173.3,58.8,175.2,58.7,175.8,58.5z M157.7,54.8c0.5-0.2,1.1-0.6,1.4-0.9
		c0.7-0.7,0.7-1.3-0.1-2c-1.5-1.6-6-1.6-7.6-0.1c-1.2,1.2-0.1,2.8,2.3,3.3C154.7,55.3,156.7,55.2,157.7,54.8z M178.7,45.7
		c0.8-0.4,0.8-0.9,0-1.3c-0.7-0.5-3.2-0.5-3.9-0.1c-0.7,0.4-0.9,0.7-0.5,1.1C175,46.1,177.5,46.3,178.7,45.7z M190.8,45.7
		c1.1-0.4,1.8-1.1,1.8-1.8c0-0.7-0.4-1.2-1.4-1.7c-1-0.4-3.2-0.5-4.4-0.2c-1,0.3-2,1.2-2,1.8c0,0.6,0.9,1.5,1.9,1.8
		C187.6,46,189.8,46,190.8,45.7z M165.7,43.4c0.8-0.3,1.8-1.1,1.8-1.6c0-0.2-0.2-0.6-0.5-0.8c-1.4-1.3-5.2-1.5-6.8-0.2
		c-0.5,0.4-0.6,0.5-0.6,1c0,0.9,1.2,1.7,3,2C163.2,43.9,164.9,43.7,165.7,43.4z"/>
</g>
</svg>
