<?xml version="1.0" encoding="utf-8"?>
<!-- Generator: Adobe Illustrator 24.0.1, SVG Export Plug-In . SVG Version: 6.00 Build 0)  -->
<svg version="1.1" id="Layer_1" xmlns="http://www.w3.org/2000/svg" xmlns:xlink="http://www.w3.org/1999/xlink" x="0px" y="0px"
	 width="240px" height="128px" viewBox="0 0 240 128" style="enable-background:new 0 0 240 128;" xml:space="preserve">
<style type="text/css">
	.st0{fill:#EEC542;stroke:#424451;stroke-width:5;stroke-miterlimit:10;}
	.st1{fill:#424451;}
</style>
<circle class="st0" cx="176" cy="64" r="61.5"/>
<circle class="st0" cx="64" cy="64" r="61.5"/>
<g id="layer101_1_">
	<path class="st1" d="M42.8,101.4c-1.1-0.2-2.6-0.8-3.6-1.5c-0.6-0.4-1.5-1.5-1.8-1.9c-0.1-0.1-0.2-0.5-0.4-0.9
		c-0.6-1.3-0.6-0.5-0.6-17.1c0-14.8,0-15,0.2-15.6c0.4-1.2,0.9-2,1.8-2.9c0.5-0.5,1.1-1,1.4-1.2c1.1-0.7,2.5-1.1,3.6-1.1h0.5l0-8
		c0-7.7,0-8.1,0.2-9.1c1.4-7.6,7.2-13.4,15.1-15.2c1.7-0.4,2.6-0.5,4.9-0.5c2.3,0,3.2,0.1,5.3,0.6c3.6,0.9,7.1,3,9.6,5.6
		c2.3,2.4,4,5.6,4.7,8.7c0.4,1.7,0.4,2.6,0.4,10.3v7.5h0.6c1.1,0,2.8,0.6,4,1.4c1.5,1,2.6,2.7,2.9,4.4c0.1,0.4,0.1,5.2,0.1,15.7
		l0,15.1l-0.2,0.6c-0.5,1.2-0.9,2-1.7,2.8c-0.8,0.8-1.5,1.3-2.6,1.7c-1.4,0.6-0.3,0.5-23,0.5C52.5,101.5,42.9,101.5,42.8,101.4z
		 M85.1,96.7c0.7-0.3,1-0.5,1.3-1.1l0.3-0.5l0-14.7V65.6l-0.2-0.4c-0.3-0.5-0.9-1-1.4-1.2c-0.2-0.1-7.1-0.1-21.1-0.1H43.2l-0.5,0.3
		c-0.5,0.3-1,0.8-1.2,1.3c-0.1,0.2-0.1,4.2-0.1,15c0,14,0,14.7,0.2,15.1c0.1,0.2,0.4,0.5,0.6,0.7c0.8,0.7-1,0.7,21.9,0.7
		C84.5,96.9,84.6,96.9,85.1,96.7z M79.1,51.6c0-5.1,0-8-0.1-8.4c-0.3-2-1.1-4-2.3-5.7c-0.7-1-2.8-3-3.8-3.7c-3.2-2.1-7-3-10.7-2.6
		c-3.7,0.4-6.8,1.9-9.3,4.4c-2,2-3.2,4.1-3.8,6.8c-0.2,0.9-0.2,1.1-0.2,9l0,8.1H64h15.1L79.1,51.6L79.1,51.6z"/>
	<path class="st1" d="M69.1,82.7c0,2.8-2.3,5.1-5.1,5.1c-2.8,0-5.1-2.3-5.1-5.1c0-1.9,1.1-3.6,2.7-4.5V76c0-3.2,0-3.4,0.7-4.1
		c1-1,2.5-1,3.5,0c0.7,0.7,0.7,0.8,0.7,4v2.3C68.1,79,69.1,80.7,69.1,82.7z"/>
</g>
<path class="st1" d="M189.7,71.3c0-7.3-4.4-9.8-13.1-10.8c-6.2-0.8-7.5-2.5-7.5-5.4s2.1-4.8,6.2-4.8c3.7,0,5.8,1.2,6.9,4.4
	c0.2,0.6,0.8,1,1.5,1h3.3c0.8,0,1.5-0.6,1.5-1.5V54c-0.8-4.6-4.6-8.1-9.3-8.5v-5c0-0.8-0.6-1.5-1.7-1.7h-3.1c-0.8,0-1.5,0.6-1.7,1.7
	v4.8c-6.2,0.8-10.2,5-10.2,10.2c0,6.9,4.2,9.6,12.9,10.6c5.8,1,7.7,2.3,7.7,5.6s-2.9,5.6-6.9,5.6c-5.4,0-7.3-2.3-7.9-5.4
	c-0.2-0.8-0.8-1.2-1.5-1.2h-3.5c-0.8,0-1.5,0.6-1.5,1.5v0.2c0.8,5.2,4.2,8.9,11,10v5c0,0.8,0.6,1.5,1.7,1.7h3.1
	c0.8,0,1.5-0.6,1.7-1.7v-5C185.6,81.2,189.7,76.9,189.7,71.3L189.7,71.3z"/>
<path class="st1" d="M165.4,93.1c-16.2-5.8-24.5-23.9-18.5-39.9c3.1-8.7,10-15.4,18.5-18.5c0.8-0.4,1.2-1,1.2-2.1v-2.9
	c0-0.8-0.4-1.5-1.2-1.7c-0.2,0-0.6,0-0.8,0.2c-19.7,6.2-30.5,27.2-24.3,47c3.7,11.6,12.7,20.6,24.3,24.3c0.8,0.4,1.7,0,1.9-0.8
	c0.2-0.2,0.2-0.4,0.2-0.8V95C166.7,94.3,166,93.5,165.4,93.1z M187.4,28.3c-0.8-0.4-1.7,0-1.9,0.8c-0.2,0.2-0.2,0.4-0.2,0.8v2.9
	c0,0.8,0.6,1.7,1.2,2.1c16.2,5.8,24.5,23.9,18.5,39.9c-3.1,8.7-10,15.4-18.5,18.5c-0.8,0.4-1.2,1-1.2,2.1v2.9c0,0.8,0.4,1.5,1.2,1.7
	c0.2,0,0.6,0,0.8-0.2c19.7-6.2,30.5-27.2,24.3-47C208,40.9,198.9,32,187.4,28.3L187.4,28.3z"/>
</svg>
