<?xml version="1.0" encoding="utf-8"?>
<!-- Generator: Adobe Illustrator 24.0.1, SVG Export Plug-In . SVG Version: 6.00 Build 0)  -->
<svg version="1.1" id="Layer_1" xmlns="http://www.w3.org/2000/svg" xmlns:xlink="http://www.w3.org/1999/xlink" x="0px" y="0px"
	 width="240px" height="128px" viewBox="0 0 240 128" style="enable-background:new 0 0 240 128;" xml:space="preserve">
<style type="text/css">
	.st0{fill:#EEC542;stroke:#424451;stroke-width:5;stroke-miterlimit:10;}
	.st1{fill:#424451;}
</style>
<circle class="st0" cx="176" cy="64" r="61.5"/>
<circle class="st0" cx="64" cy="64" r="61.5"/>
<g id="Layer_2_1_">
	<g id="Layer_1-2">
		<path class="st1" d="M176,26.4l9.3,9.5l-23.4,23.4l-9.3-9.3L176,26.4z"/>
		<path class="st1" d="M190.1,40.5l9.3,9.5l-37.5,37.5l-9.3-9.3L190.1,40.5z"/>
		<path class="st1" d="M147.8,54.6l9.3,9.5l-9.3,9.3l-9.3-9.3L147.8,54.6z"/>
		<path class="st1" d="M204.2,54.6l9.3,9.5L176,101.6l-9.3-9.3L204.2,54.6z"/>
	</g>
</g>
<g id="layer101_1_">
	<path class="st1" d="M42.7,101.5c-1.1-0.2-2.6-0.8-3.6-1.5c-0.6-0.4-1.5-1.5-1.8-1.9c-0.1-0.1-0.2-0.5-0.4-0.9
		c-0.6-1.3-0.6-0.5-0.6-17.1c0-14.8,0-15,0.2-15.6c0.4-1.2,0.9-2,1.8-2.9c0.5-0.5,1.1-1,1.4-1.2c1.1-0.7,2.5-1.1,3.6-1.1h0.5v-8
		c0-7.7,0-8.1,0.2-9.1c1.4-7.6,7.2-13.4,15.1-15.2c1.7-0.4,2.6-0.5,4.9-0.5s3.2,0.1,5.3,0.6c3.6,0.9,7.1,3,9.6,5.6
		c2.3,2.4,4,5.6,4.7,8.7c0.4,1.7,0.4,2.6,0.4,10.3v7.5h0.6c1.1,0,2.8,0.6,4,1.4c1.5,1,2.6,2.7,2.9,4.4c0.1,0.4,0.1,5.2,0.1,15.7
		v15.1l-0.2,0.6c-0.5,1.2-0.9,2-1.7,2.8c-0.8,0.8-1.5,1.3-2.6,1.7c-1.4,0.6-0.3,0.5-23,0.5C52.4,101.6,42.8,101.6,42.7,101.5z
		 M85,96.8c0.7-0.3,1-0.5,1.3-1.1l0.3-0.5V80.5V65.7l-0.2-0.4c-0.3-0.5-0.9-1-1.4-1.2C84.9,64,78,64,64,64H43.1l-0.5,0.3
		c-0.5,0.3-1,0.8-1.2,1.3c-0.1,0.2-0.1,4.2-0.1,15c0,14,0,14.7,0.2,15.1c0.1,0.2,0.4,0.5,0.6,0.7c0.8,0.7-1,0.7,21.9,0.7
		C84.4,97,84.5,97,85,96.8z M79,51.7c0-5.1,0-8-0.1-8.4c-0.3-2-1.1-4-2.3-5.7c-0.7-1-2.8-3-3.8-3.7c-3.2-2.1-7-3-10.7-2.6
		s-6.8,1.9-9.3,4.4c-2,2-3.2,4.1-3.8,6.8c-0.2,0.9-0.2,1.1-0.2,9v8.1h15.1H79V51.7L79,51.7z"/>
	<path class="st1" d="M69,82.8c0,2.8-2.3,5.1-5.1,5.1c-2.8,0-5.1-2.3-5.1-5.1c0-1.9,1.1-3.6,2.7-4.5v-2.2c0-3.2,0-3.4,0.7-4.1
		c1-1,2.5-1,3.5,0c0.7,0.7,0.7,0.8,0.7,4v2.3C68,79.1,69,80.8,69,82.8z"/>
</g>
</svg>
