<?xml version="1.0" encoding="utf-8"?>
<!-- Generator: Adobe Illustrator 24.0.1, SVG Export Plug-In . SVG Version: 6.00 Build 0)  -->
<svg version="1.1" id="Layer_1" xmlns="http://www.w3.org/2000/svg" xmlns:xlink="http://www.w3.org/1999/xlink" x="0px" y="0px"
	 width="240px" height="128px" viewBox="0 0 240 128" style="enable-background:new 0 0 240 128;" xml:space="preserve">
<style type="text/css">
	.st0{fill:#EEC542;stroke:#424451;stroke-width:5;stroke-miterlimit:10;}
	.st1{fill:#424451;}
</style>
<circle class="st0" cx="176" cy="64" r="61.5"/>
<circle class="st0" cx="64" cy="64" r="61.5"/>
<path class="st1" d="M77.7,71.3c0-7.3-4.4-9.8-13.1-10.8c-6.2-0.8-7.5-2.5-7.5-5.4s2.1-4.8,6.2-4.8c3.7,0,5.8,1.2,6.9,4.4
	c0.2,0.6,0.8,1,1.5,1H75c0.8,0,1.5-0.6,1.5-1.5V54c-0.8-4.6-4.6-8.1-9.3-8.5v-5c0-0.8-0.6-1.5-1.7-1.7h-3.1c-0.8,0-1.5,0.6-1.7,1.7
	v4.8c-6.2,0.8-10.2,5-10.2,10.2c0,6.9,4.2,9.6,12.9,10.6c5.8,1,7.7,2.3,7.7,5.6s-2.9,5.6-6.9,5.6c-5.4,0-7.3-2.3-7.9-5.4
	c-0.2-0.8-0.8-1.2-1.5-1.2h-3.5c-0.8,0-1.5,0.6-1.5,1.5v0.2c0.8,5.2,4.2,8.9,11,10v5c0,0.8,0.6,1.5,1.7,1.7h3.1
	c0.8,0,1.5-0.6,1.7-1.7v-5C73.6,81.2,77.7,76.9,77.7,71.3L77.7,71.3z"/>
<path class="st1" d="M53.4,93.1c-16.2-5.8-24.5-23.9-18.5-39.9c3.1-8.7,10-15.4,18.5-18.5c0.8-0.4,1.2-1,1.2-2.1v-2.9
	c0-0.8-0.4-1.5-1.2-1.7c-0.2,0-0.6,0-0.8,0.2c-19.7,6.2-30.5,27.2-24.3,47C32,86.9,40.9,95.8,52.6,99.5c0.8,0.4,1.7,0,1.9-0.8
	c0.2-0.2,0.2-0.4,0.2-0.8V95C54.7,94.3,54,93.5,53.4,93.1z M75.4,28.3c-0.8-0.4-1.7,0-1.9,0.8c-0.2,0.2-0.2,0.4-0.2,0.8v2.9
	c0,0.8,0.6,1.7,1.2,2.1c16.2,5.8,24.5,23.9,18.5,39.9c-3.1,8.7-10,15.4-18.5,18.5c-0.8,0.4-1.2,1-1.2,2.1v2.9c0,0.8,0.4,1.5,1.2,1.7
	c0.2,0,0.6,0,0.8-0.2c19.7-6.2,30.5-27.2,24.3-47C96,40.9,86.9,32,75.4,28.3L75.4,28.3z"/>
<path class="st1" d="M155.4,64.1l-8.4,8.4l-8.5-8.4l8.4-8.4L155.4,64.1z M175.9,43.5l14.6,14.6l8.4-8.4l-23-23.1l-23,23l8.4,8.4
	L175.9,43.5z M205.1,55.7l-8.4,8.4l8.4,8.4l8.4-8.4L205.1,55.7z M175.9,84.6L161.4,70l-8.4,8.4l23,23l23-23l-8.4-8.4L175.9,84.6z
	 M175.9,72.5l8.4-8.3l-8.4-8.4l-8.5,8.4L175.9,72.5z"/>
</svg>
