<?xml version="1.0" encoding="utf-8"?>
<!-- Generator: Adobe Illustrator 24.0.1, SVG Export Plug-In . SVG Version: 6.00 Build 0)  -->
<svg version="1.1" id="Layer_1" xmlns="http://www.w3.org/2000/svg" xmlns:xlink="http://www.w3.org/1999/xlink" x="0px" y="0px"
	 width="240px" height="128px" viewBox="0 0 240 128" style="enable-background:new 0 0 240 128;" xml:space="preserve">
<style type="text/css">
	.st0{fill:#EEC542;stroke:#424451;stroke-width:5;stroke-miterlimit:10;}
	.st1{fill:#424451;}
</style>
<circle class="st0" cx="176" cy="64" r="61.5"/>
<circle class="st0" cx="64" cy="64" r="61.5"/>
<path class="st1" d="M155.4,64.1l-8.4,8.4l-8.5-8.4l8.4-8.4L155.4,64.1z M175.9,43.5l14.6,14.6l8.4-8.4l-23-23.1l-23,23l8.4,8.4
	L175.9,43.5z M205.1,55.7l-8.4,8.4l8.4,8.4l8.4-8.4L205.1,55.7z M175.9,84.6L161.4,70l-8.4,8.4l23,23l23-23l-8.4-8.4L175.9,84.6z
	 M175.9,72.5l8.4-8.3l-8.4-8.4l-8.5,8.4L175.9,72.5z"/>
<path class="st1" d="M70.5,54.3v-7.8h17.9v-12H39.6v12h17.9v7.8C43,55,32,57.9,32,61.3c0,3.5,11,6.3,25.5,7v25.1h13V68.3
	c14.6-0.7,25.5-3.6,25.5-7C96,57.9,85.1,55,70.5,54.3 M70.5,66.2L70.5,66.2c-0.4,0-2.2,0.1-6.4,0.1c-3.3,0-5.7-0.1-6.5-0.1v0
	c-12.9-0.6-22.5-2.8-22.5-5.5s9.6-4.9,22.5-5.5V64c0.8,0.1,3.3,0.2,6.6,0.2c4,0,6-0.2,6.4-0.2v-8.8C83.4,55.8,93,58,93,60.7
	C93,63.4,83.4,65.6,70.5,66.2"/>
</svg>
