<?xml version="1.0" encoding="utf-8"?>
<!-- Generator: Adobe Illustrator 24.0.1, SVG Export Plug-In . SVG Version: 6.00 Build 0)  -->
<svg version="1.1" id="Layer_1" xmlns="http://www.w3.org/2000/svg" xmlns:xlink="http://www.w3.org/1999/xlink" x="0px" y="0px"
	 width="240px" height="128px" viewBox="0 0 240 128" style="enable-background:new 0 0 240 128;" xml:space="preserve">
<style type="text/css">
	.st0{fill:#EEC542;stroke:#424451;stroke-width:5;stroke-miterlimit:10;}
	.st1{fill:#424451;}
</style>
<circle class="st0" cx="176" cy="64" r="61.5"/>
<circle class="st0" cx="64" cy="64" r="61.5"/>
<g id="Layer_2_1_">
	<g id="Layer_1-2">
		<path class="st1" d="M176,26.4l9.3,9.5l-23.4,23.4l-9.3-9.3L176,26.4z"/>
		<path class="st1" d="M190.1,40.5l9.3,9.5l-37.5,37.5l-9.3-9.3L190.1,40.5z"/>
		<path class="st1" d="M147.8,54.6l9.3,9.5l-9.3,9.3l-9.3-9.3L147.8,54.6z"/>
		<path class="st1" d="M204.2,54.6l9.3,9.5L176,101.6l-9.3-9.3L204.2,54.6z"/>
	</g>
</g>
<path class="st1" d="M43.4,64.1L35,72.5l-8.5-8.4l8.4-8.4L43.4,64.1z M63.9,43.5l14.6,14.6l8.4-8.4l-23-23.1l-23,23l8.4,8.4
	L63.9,43.5z M93.1,55.7l-8.4,8.4l8.4,8.4l8.4-8.4L93.1,55.7z M63.9,84.6L49.4,70L41,78.4l23,23l23-23L78.6,70L63.9,84.6z M63.9,72.5
	l8.4-8.3l-8.4-8.4l-8.5,8.4L63.9,72.5z"/>
</svg>
