<?xml version="1.0" encoding="utf-8"?>
<!-- Generator: Adobe Illustrator 24.0.1, SVG Export Plug-In . SVG Version: 6.00 Build 0)  -->
<svg version="1.1" id="Layer_1" xmlns="http://www.w3.org/2000/svg" xmlns:xlink="http://www.w3.org/1999/xlink" x="0px" y="0px"
	 width="240px" height="128px" viewBox="0 0 240 128" style="enable-background:new 0 0 240 128;" xml:space="preserve">
<style type="text/css">
	.st0{fill:url(#SVGID_1_);stroke:#2852AF;stroke-width:5;stroke-miterlimit:10;}
	.st1{fill:url(#SVGID_2_);stroke:#2852AF;stroke-width:5;stroke-miterlimit:10;}
	.st2{fill:#EBB42E;}
	.st3{fill:#FFC31A;}
	.st4{fill:#FFD538;}
	.st5{fill:#FCCD35;}
	.st6{fill:#FFFFFF;}
</style>
<linearGradient id="SVGID_1_" gradientUnits="userSpaceOnUse" x1="145.2449" y1="10.7305" x2="206.7551" y2="117.2695">
	<stop  offset="0" style="stop-color:#406BCC"/>
	<stop  offset="1" style="stop-color:#3358C1"/>
</linearGradient>
<circle class="st0" cx="176" cy="64" r="61.5"/>
<linearGradient id="SVGID_2_" gradientUnits="userSpaceOnUse" x1="33.2449" y1="10.7305" x2="94.7551" y2="117.2695">
	<stop  offset="0" style="stop-color:#406BCC"/>
	<stop  offset="1" style="stop-color:#3358C1"/>
</linearGradient>
<circle class="st1" cx="64" cy="64" r="61.5"/>
<path class="st2" d="M43.4,64.1L35,72.5l-8.5-8.4l8.4-8.4L43.4,64.1z M63.9,43.5l14.6,14.6l8.4-8.4l-23-23.1l-23,23l8.4,8.4
	L63.9,43.5z M93.1,55.7l-8.4,8.4l8.4,8.4l8.4-8.4L93.1,55.7z M63.9,84.6L49.4,70L41,78.4l23,23l23-23L78.6,70L63.9,84.6z M63.9,72.5
	l8.4-8.3l-8.4-8.4l-8.5,8.4L63.9,72.5z"/>
<g id="layer102">
	<path class="st3" d="M194.5,88.8c-2.3,0.1-4.9,0-7.3-0.3c-7.6-0.9-13.1-3.5-14.6-6.8c-0.1-0.3-0.2-0.4-0.2-0.3
		c0,0.2-0.5,3.8-0.6,5.3c-0.1,1.4-0.1,4.5,0,5.5c0.4,2.9,1.3,4.9,3,6.7c3,3,8.2,4.8,15.2,5.3c2.2,0.1,7.6,0.1,8.4-0.1l0.2,0v-8.7
		c0.3-2.3,0.6-4.6,0.9-6.9C198.7,88.5,196,88.7,194.5,88.8z"/>
	<path class="st4" d="M213.4,84.6c-0.1-0.9-0.3-2.4-0.4-2.4c0,0-4,0-8.8,0l-8.8,0l2.1,3.1c1.2,1.7,2.1,3.1,2.1,3.2
		c-0.3,2.3-0.6,4.6-0.9,6.9h7c5.7,0,7.1,0,7.2-0.1c0.1-0.2,0.3-2.5,0.5-4C213.5,89.4,213.5,86,213.4,84.6z M204.1,93.2
		c-0.2,0.1-0.5,0.2-0.7,0.2c-1.6,0-2.2-2.2-0.8-3.1c0.6-0.3,1.3-0.3,1.8,0.1c0.3,0.2,0.6,0.9,0.6,1.2
		C205,92.3,204.6,92.9,204.1,93.2z M208.2,88.4c-0.3,0.1-0.5,0.2-0.9,0.2c-1.9,0-2.8-2.4-1.4-3.7c1-0.9,2.6-0.6,3.2,0.7
		c0.1,0.3,0.2,0.5,0.2,1C209.3,87.4,209,88,208.2,88.4z M210.5,92.4c-0.5,0.3-1.3,0.2-1.5-0.3c-0.2-0.3-0.2-0.9,0-1.2
		c0.4-0.6,1.4-0.6,1.8,0C211.1,91.4,211,92.1,210.5,92.4z"/>
	<path class="st5" d="M189.7,87.4c-7.8-0.5-14.4-3-15.8-6.1c-0.2-0.5-0.3-0.7-0.3-1.2c0-0.5,0-0.7,0.3-1.2c1.3-2.7,6.4-5,13-5.9
		c2.9-0.4,7-0.5,9.4-0.2c5.7,0.6,10.7,2.2,13.7,4.3c0.9,0.6,2,1.8,2.4,2.5c0.1,0.3,0.3,0.6,0.3,0.7l0,0.2l-9.9,0l-9.9,0l2.2,3.3
		c1.2,1.8,2.2,3.3,2.2,3.3C197.2,87.4,191.4,87.5,189.7,87.4z M192.5,85.4c0.6-0.3,0.6-0.7-0.1-0.9c-0.9-0.3-2.3-0.1-2.3,0.4
		c0,0.2,0.2,0.5,0.5,0.6C191,85.6,192.1,85.6,192.5,85.4z M182.3,83.3c0.3-0.1,0.6-0.3,0.8-0.5c0.4-0.4,0.4-0.7,0-1.1
		c-0.9-0.9-3.4-0.9-4.2,0c-0.7,0.7-0.1,1.5,1.3,1.8C180.7,83.6,181.8,83.6,182.3,83.3z M194.1,78.3c0.4-0.2,0.4-0.5,0-0.7
		c-0.4-0.3-1.8-0.3-2.2-0.1c-0.4,0.2-0.5,0.4-0.3,0.6C192,78.5,193.4,78.6,194.1,78.3z M200.8,78.3c0.6-0.2,1-0.6,1-1
		c0-0.4-0.3-0.7-0.8-0.9c-0.5-0.3-1.8-0.3-2.4-0.1c-0.6,0.2-1.1,0.7-1.1,1c0,0.3,0.5,0.8,1,1C199.1,78.5,200.3,78.5,200.8,78.3z
		 M186.8,77c0.5-0.1,1-0.6,1-0.9c0-0.1-0.1-0.3-0.3-0.5c-0.8-0.7-2.9-0.8-3.8-0.1c-0.3,0.2-0.3,0.3-0.3,0.5c0,0.5,0.7,0.9,1.7,1.1
		C185.4,77.3,186.4,77.2,186.8,77z"/>
</g>
<g id="layer101">
	<path class="st3" d="M142.1,65.7c-0.6-0.1-1.5-0.4-2-0.9c-0.3-0.3-0.9-0.8-1-1.1c0-0.1-0.1-0.3-0.2-0.5c-0.3-0.7-0.3-0.3-0.3-9.5
		c0-8.3,0-8.4,0.1-8.7c0.2-0.7,0.5-1.1,1-1.6c0.3-0.3,0.6-0.6,0.8-0.7c0.6-0.4,1.4-0.6,2-0.6h0.3l0-4.5c0-4.3,0-4.5,0.1-5.1
		c0.8-4.2,4-7.4,8.4-8.5c1-0.2,1.5-0.3,2.7-0.3c1.3,0,1.8,0,3,0.3c2,0.5,4,1.7,5.4,3.1c1.3,1.3,2.2,3.1,2.6,4.9
		c0.2,1,0.2,1.4,0.2,5.8v4.2h0.3c0.6,0,1.6,0.3,2.2,0.8c0.8,0.6,1.4,1.5,1.6,2.5c0,0.3,0,2.9,0,8.8l0,8.4l-0.1,0.3
		c-0.3,0.7-0.5,1.1-1,1.5c-0.5,0.5-0.9,0.7-1.5,1c-0.8,0.3-0.2,0.3-12.8,0.3C147.5,65.7,142.2,65.7,142.1,65.7z M165.7,63
		c0.4-0.1,0.6-0.3,0.7-0.6l0.1-0.3v-8.2v-8.2l-0.1-0.3c-0.1-0.3-0.5-0.6-0.8-0.7c-0.1,0-4,0-11.8,0h-11.6l-0.3,0.1
		c-0.3,0.2-0.6,0.4-0.7,0.7c0,0.1-0.1,2.3-0.1,8.4c0,7.8,0,8.2,0.1,8.4c0,0.1,0.2,0.3,0.3,0.4c0.5,0.4-0.5,0.4,12.2,0.4
		C165.4,63.1,165.4,63.1,165.7,63z M162.4,37.8c0-2.8,0-4.4,0-4.7c-0.2-1.1-0.6-2.2-1.3-3.2c-0.4-0.6-1.5-1.7-2.1-2.1
		c-1.8-1.2-3.9-1.7-6-1.5c-2.1,0.2-3.8,1-5.2,2.5c-1.1,1.1-1.8,2.3-2.1,3.8c-0.1,0.5-0.1,0.6-0.1,5l0,4.5h8.4h8.4V37.8L162.4,37.8z"
		/>
	<path class="st3" d="M156.8,55.2c0,1.6-1.3,2.9-2.9,2.9s-2.9-1.3-2.9-2.9c0-1.1,0.6-2,1.5-2.5v-1.2c0-1.8,0-1.9,0.4-2.3
		c0.5-0.6,1.4-0.6,2,0c0.4,0.4,0.4,0.4,0.4,2.2v1.3C156.2,53.2,156.8,54.1,156.8,55.2z"/>
</g>
<g>
	<path class="st6" d="M174.1,64.7v3.7h3.5v1.6h-3.5v3.7h-1.7v-3.7h-3.5v-1.6h3.5v-3.7H174.1z"/>
</g>
</svg>
