<?xml version="1.0" encoding="utf-8"?>
<!-- Generator: Adobe Illustrator 24.0.1, SVG Export Plug-In . SVG Version: 6.00 Build 0)  -->
<svg version="1.1" id="Layer_1" xmlns="http://www.w3.org/2000/svg" xmlns:xlink="http://www.w3.org/1999/xlink" x="0px" y="0px"
	 width="240px" height="128px" viewBox="0 0 240 128" style="enable-background:new 0 0 240 128;" xml:space="preserve">
<style type="text/css">
	.st0{fill:url(#SVGID_1_);stroke:#2852AF;stroke-width:5;stroke-miterlimit:10;}
	.st1{fill:url(#SVGID_2_);stroke:#2852AF;stroke-width:5;stroke-miterlimit:10;}
	.st2{fill:#EBB42E;}
	.st3{fill:#FFC31A;}
	.st4{fill:#FFD538;}
	.st5{fill:#FCCD35;}
	.st6{fill:#F99338;}
	.st7{fill:#FFA45A;}
	.st8{fill:#FC9D4F;}
	.st9{fill:#FFFFFF;}
</style>
<linearGradient id="SVGID_1_" gradientUnits="userSpaceOnUse" x1="145.2449" y1="10.7305" x2="206.7551" y2="117.2695">
	<stop  offset="0" style="stop-color:#406BCC"/>
	<stop  offset="1" style="stop-color:#3358C1"/>
</linearGradient>
<circle class="st0" cx="176" cy="64" r="61.5"/>
<linearGradient id="SVGID_2_" gradientUnits="userSpaceOnUse" x1="33.2449" y1="10.7305" x2="94.7551" y2="117.2695">
	<stop  offset="0" style="stop-color:#406BCC"/>
	<stop  offset="1" style="stop-color:#3358C1"/>
</linearGradient>
<circle class="st1" cx="64" cy="64" r="61.5"/>
<path class="st2" d="M155.4,64.1l-8.4,8.4l-8.5-8.4l8.4-8.4L155.4,64.1z M175.9,43.5l14.6,14.6l8.4-8.4l-23-23.1l-23,23l8.4,8.4
	L175.9,43.5z M205.1,55.7l-8.4,8.4l8.4,8.4l8.4-8.4L205.1,55.7z M175.9,84.6L161.4,70l-8.4,8.4l23,23l23-23l-8.4-8.4L175.9,84.6z
	 M175.9,72.5l8.4-8.3l-8.4-8.4l-8.5,8.4L175.9,72.5z"/>
<g id="layer102">
	<path class="st3" d="M83.4,81.8c-2.2,0.1-4.7,0-7-0.2c-7.3-0.9-12.5-3.3-13.9-6.5c-0.1-0.3-0.2-0.4-0.2-0.3c0,0.2-0.5,3.7-0.6,5.1
		c-0.1,1.3-0.1,4.3,0,5.2c0.4,2.8,1.2,4.7,2.9,6.3c2.8,2.9,7.8,4.6,14.5,5.1c2.1,0.1,7.2,0.1,8-0.1l0.2,0V88
		c0.3-2.2,0.6-4.4,0.8-6.5C87.4,81.6,84.9,81.7,83.4,81.8z"/>
	<path class="st4" d="M101.4,77.8c-0.1-0.9-0.3-2.3-0.4-2.3c0,0-3.8,0-8.4,0l-8.4,0l2,3c1.1,1.6,2,3,2,3c-0.3,2.2-0.6,4.4-0.9,6.6
		H94c5.4,0,6.8,0,6.8-0.1c0.1-0.2,0.3-2.4,0.5-3.8C101.5,82.5,101.5,79.1,101.4,77.8z M92.5,86c-0.2,0.1-0.4,0.2-0.6,0.2
		c-1.5,0-2.1-2.1-0.8-2.9c0.5-0.3,1.2-0.3,1.7,0.1c0.3,0.2,0.6,0.8,0.6,1.2C93.4,85.2,93,85.8,92.5,86z M96.4,81.5
		c-0.2,0.1-0.5,0.2-0.8,0.2c-1.8,0-2.7-2.3-1.3-3.6c0.9-0.9,2.5-0.6,3.1,0.6c0.1,0.2,0.2,0.5,0.2,0.9C97.5,80.5,97.2,81.1,96.4,81.5
		z M98.6,85.3c-0.5,0.3-1.2,0.2-1.4-0.3c-0.2-0.3-0.2-0.9,0-1.1c0.4-0.6,1.3-0.6,1.7,0C99.2,84.3,99.1,85,98.6,85.3z"/>
	<path class="st5" d="M78.8,80.5c-7.4-0.4-13.7-2.9-15.1-5.8c-0.2-0.5-0.3-0.6-0.3-1.1c0-0.5,0-0.7,0.3-1.1
		c1.2-2.6,6.1-4.8,12.4-5.6c2.8-0.4,6.7-0.4,9-0.2c5.4,0.6,10.2,2.1,13.1,4.1c0.9,0.6,2,1.8,2.3,2.4c0.1,0.3,0.3,0.6,0.3,0.7l0,0.2
		l-9.4,0l-9.4,0l2.1,3.1c1.2,1.7,2.1,3.1,2.1,3.1C86,80.5,80.5,80.6,78.8,80.5z M81.4,78.6c0.6-0.2,0.6-0.6-0.1-0.9
		c-0.8-0.3-2.2-0.1-2.2,0.4c0,0.2,0.2,0.4,0.5,0.5C80.1,78.8,81.1,78.7,81.4,78.6z M71.8,76.6c0.2-0.1,0.6-0.3,0.7-0.4
		c0.4-0.4,0.4-0.7,0-1.1c-0.8-0.8-3.2-0.9-4,0c-0.6,0.6-0.1,1.5,1.2,1.8C70.2,76.9,71.3,76.8,71.8,76.6z M83,71.8
		c0.4-0.2,0.4-0.5,0-0.7c-0.4-0.2-1.7-0.3-2.1-0.1c-0.4,0.2-0.5,0.4-0.3,0.6C81,72,82.4,72.1,83,71.8z M89.4,71.8
		c0.6-0.2,0.9-0.6,0.9-1c0-0.4-0.2-0.6-0.8-0.9c-0.5-0.2-1.7-0.3-2.3-0.1c-0.6,0.2-1,0.6-1,1c0,0.3,0.5,0.8,1,1
		C87.7,72,88.9,72,89.4,71.8z M76,70.6c0.4-0.1,0.9-0.6,0.9-0.8c0-0.1-0.1-0.3-0.3-0.4c-0.7-0.7-2.8-0.8-3.6-0.1
		c-0.3,0.2-0.3,0.3-0.3,0.5c0,0.5,0.6,0.9,1.6,1C74.7,70.8,75.6,70.7,76,70.6z"/>
</g>
<g id="layer102_1_">
	<path class="st6" d="M48.3,46.7c-2.2,0.1-4.7,0-7-0.2c-7.3-0.9-12.5-3.3-13.9-6.5c-0.1-0.3-0.2-0.4-0.2-0.3c0,0.2-0.5,3.7-0.6,5.1
		c-0.1,1.3-0.1,4.3,0,5.2c0.4,2.8,1.2,4.7,2.9,6.3c2.8,2.9,7.8,4.6,14.5,5.1c2.1,0.1,7.2,0.1,8-0.1l0.2,0V53
		c0.3-2.2,0.6-4.4,0.8-6.5C52.3,46.5,49.8,46.7,48.3,46.7z"/>
	<path class="st7" d="M66.3,42.7c-0.1-0.9-0.3-2.3-0.4-2.3c0,0-3.8,0-8.4,0l-8.4,0l2,3c1.1,1.6,2,3,2,3c-0.3,2.2-0.6,4.4-0.9,6.6H59
		c5.4,0,6.8,0,6.8-0.1c0.1-0.2,0.3-2.4,0.5-3.8C66.5,47.4,66.5,44.1,66.3,42.7z M57.4,51c-0.2,0.1-0.4,0.2-0.6,0.2
		c-1.5,0-2.1-2.1-0.8-2.9c0.5-0.3,1.2-0.3,1.7,0.1c0.3,0.2,0.6,0.8,0.6,1.2C58.4,50.1,58,50.7,57.4,51z M61.4,46.4
		c-0.2,0.1-0.5,0.2-0.8,0.2c-1.8,0-2.7-2.3-1.3-3.6c0.9-0.9,2.5-0.6,3.1,0.6c0.1,0.2,0.2,0.5,0.2,0.9C62.5,45.5,62.1,46,61.4,46.4z
		 M63.6,50.2c-0.5,0.3-1.2,0.2-1.4-0.3c-0.2-0.3-0.2-0.9,0-1.1c0.4-0.6,1.3-0.6,1.7,0C64.2,49.3,64,49.9,63.6,50.2z"/>
	<path class="st8" d="M43.7,45.5C36.3,45,30,42.6,28.6,39.7c-0.2-0.5-0.3-0.6-0.3-1.1s0-0.7,0.3-1.1c1.2-2.6,6.1-4.8,12.4-5.6
		c2.8-0.4,6.7-0.4,9-0.2c5.4,0.6,10.2,2.1,13.1,4.1c0.9,0.6,2,1.8,2.3,2.4c0.1,0.3,0.3,0.6,0.3,0.7l0,0.2l-9.4,0l-9.4,0l2.1,3.1
		c1.2,1.7,2.1,3.1,2.1,3.1C50.9,45.5,45.4,45.6,43.7,45.5z M46.4,43.5c0.6-0.2,0.6-0.6-0.1-0.9c-0.8-0.3-2.2-0.1-2.2,0.4
		c0,0.2,0.2,0.4,0.5,0.5C45,43.7,46,43.7,46.4,43.5z M36.7,41.6c0.2-0.1,0.6-0.3,0.7-0.4c0.4-0.4,0.4-0.7,0-1.1
		c-0.8-0.8-3.2-0.9-4,0c-0.6,0.6-0.1,1.5,1.2,1.8C35.1,41.8,36.2,41.8,36.7,41.6z M47.9,36.7c0.4-0.2,0.4-0.5,0-0.7
		c-0.4-0.2-1.7-0.3-2.1-0.1s-0.5,0.4-0.3,0.6C45.9,37,47.3,37.1,47.9,36.7z M54.4,36.7c0.6-0.2,0.9-0.6,0.9-1c0-0.4-0.2-0.6-0.8-0.9
		c-0.5-0.2-1.7-0.3-2.3-0.1c-0.6,0.2-1,0.6-1,1c0,0.3,0.5,0.8,1,1C52.7,36.9,53.8,36.9,54.4,36.7z M41,35.5c0.4-0.1,0.9-0.6,0.9-0.8
		c0-0.1-0.1-0.3-0.3-0.4c-0.7-0.7-2.8-0.8-3.6-0.1c-0.3,0.2-0.3,0.3-0.3,0.5c0,0.5,0.6,0.9,1.6,1C39.7,35.8,40.6,35.7,41,35.5z"/>
</g>
<g>
	<path class="st9" d="M63.9,58.9v3.5h3.3v1.5h-3.3v3.5h-1.6v-3.5H59v-1.5h3.3v-3.5H63.9z"/>
</g>
</svg>
