<?xml version="1.0" encoding="utf-8"?>
<!-- Generator: Adobe Illustrator 24.0.1, SVG Export Plug-In . SVG Version: 6.00 Build 0)  -->
<svg version="1.1" id="kp2r-network-logo" xmlns="http://www.w3.org/2000/svg" xmlns:xlink="http://www.w3.org/1999/xlink" x="0px"
	 y="0px" width="4180px" height="645px" viewBox="0 0 4180 645" style="enable-background:new 0 0 4180 645;" xml:space="preserve">
<style type="text/css">
	.st0{fill:url(#bg_1_);}
	.st1{fill:#FFFFFF;}
	.st2{fill:#232733;}
</style>
<linearGradient id="bg_1_" gradientUnits="userSpaceOnUse" x1="173.3377" y1="49.8647" x2="493.3911" y2="604.2134" gradientTransform="matrix(1 0 0 -1 0 647.0391)">
	<stop  offset="0" style="stop-color:#CE2B6C"/>
	<stop  offset="1" style="stop-color:#FF2D82"/>
</linearGradient>
<circle id="bg" class="st0" cx="333.4" cy="320" r="320"/>
<g id="kp2r">
	<path class="st1" d="M235.7,519.6c-0.7-0.2-4.6-0.8-8.4-1.4c-18.1-3-29.5-14.5-33.1-33.3c-1.7-8.8-2-150.8-0.3-161.5
		c2-12.3,9.2-23.1,20.4-30.2c6.6-4.2,11.8-10.5,13.4-16.2c1-3.6,1.5-12.7,1.9-34.2c0.5-29.2,0.7-32.8,2.5-43.3
		c2.2-12.5,11-32.2,18.4-41.4c15.2-18.8,37.9-32,63.3-36.7c19.6-3.7,48.3,0.1,66.8,8.7c28.1,13.1,47.6,37.8,54.8,69.3
		c1.1,5.1,1.6,13.6,1.9,38.6c0.4,33.5,1.1,40.4,4.5,45.1c2.4,3.4,7.2,7.7,11.4,10.3c10.2,6.3,17.9,18.1,19.7,30.2
		c0.7,4.2,1,32.1,1,79.9c0,80.5-0.1,82.4-5.5,93.5c-3.5,7.5-10.1,14.1-17.4,17.5c-11.4,5.3-12.9,5.4-118.1,5.3
		C280.3,519.9,236.5,519.7,235.7,519.6z M423,478c4.7-2.8,7.5-5.9,9.9-11c1.4-2.9,1.6-9.5,1.9-61c0.2-36.9-0.1-59.2-0.7-62.1
		c-1.9-8.9-7.4-14.6-17-17.1c-6.5-1.8-159.6-2-167.4-0.2c-7.8,1.8-12.6,5.5-16,12.8c-2,4.1-2,5-2,64.2v60l2.8,5
		c3.4,6.1,8.8,10.1,15,11.3c2.5,0.4,41.6,0.7,86.9,0.7l82.4-0.2L423,478z M385.5,284.8c8-4.2,9.4-7.3,10.5-23
		c1.4-18.9,0.5-39.2-2.3-49.9s-4.8-15-11.4-23.7c-14.1-18.9-35.5-28.6-56.5-25.7c-18.6,2.7-38.9,17.9-47.9,36
		c-5.6,11.2-6.3,16.6-6.3,46.5c0,26.4,0.1,27.1,2.1,31.4c1.2,2.5,3.5,5.4,5.1,6.5c5.9,4.2,8.6,4.4,57,4.2
		C381.4,287,381.4,287,385.5,284.8z"/>
	<path class="st1" d="M324.3,444.8c-10-3.4-16.1-12-16.8-23.4c-0.4-6.6-0.2-7.4,3.5-15.8c4.6-10.3,5.6-13.1,6.1-18.1
		c2.1-17.8,4.9-23.3,13-25.5c6-1.7,13.4,2,15.8,7.8c0.7,1.6,2,7.9,3.1,14.1c1.8,10.3,2.9,14.1,7.8,24.6c2.6,5.8,3.1,13.4,1.1,20.1
		c-1.2,4.4-2.5,6.4-6.4,10.1C343.8,446.2,334.4,448.2,324.3,444.8z"/>
</g>
<g id="kp2r-network">
	<path id="k_1_" class="st2" d="M975.3,512.9c-8.8-13.5-18.9-27.7-30.4-42.5c-11.5-14.8-23.5-29.2-36.2-43
		c-12.7-13.8-25.7-27-39.2-39.5c-13.5-12.5-26.8-23.3-40-32.4v157.5h-63.8V162h63.8v144.8c11.1-11.1,22.8-23,34.9-35.7
		c12.2-12.7,24.2-25.5,36.2-38.5c12-13,23.4-25.6,34.2-37.7c10.8-12.2,20.6-23.1,29.4-32.9h76.5c-11.1,12.8-23,26.2-35.4,40
		c-12.5,13.8-25.3,27.8-38.5,41.8c-13.2,14-26.4,27.9-39.7,41.8c-13.3,13.8-26.4,27-39.2,39.5c14.2,10.8,28.6,23.4,43.3,37.7
		c14.7,14.4,29.1,29.7,43.3,46.1c14.2,16.4,27.8,33.4,40.8,51.1c13,17.7,24.9,35.4,35.7,52.9H975.3z"/>
	<path id="p" class="st2" d="M1194.5,158.5c51,0,90,9.3,117.2,27.8c27.2,18.6,40.8,47.6,40.8,87.1c0,20.6-3.6,38.2-10.9,52.9
		c-7.3,14.7-17.8,26.7-31.6,35.9c-13.8,9.3-30.7,16.1-50.6,20.5c-19.9,4.4-42.7,6.6-68.4,6.6h-31.9v123.5h-63.8V167.1
		c14.8-3.4,31.3-5.6,49.4-6.8C1162.7,159.1,1179.3,158.5,1194.5,158.5z M1199.1,213.7c-16.2,0-29.5,0.5-40,1.5v119.5h30.9
		c30.7,0,54.3-4.3,70.9-12.9c16.5-8.6,24.8-24.9,24.8-48.9c0-11.5-2.2-21.1-6.6-28.9c-4.4-7.8-10.5-13.8-18.2-18.2
		c-7.8-4.4-17-7.5-27.6-9.4C1222.6,214.6,1211.2,213.7,1199.1,213.7z"/>
	<path id="_x32_" class="st2" d="M1612.2,253.2c0,12.2-2.5,24.1-7.6,35.7c-5.1,11.6-11.6,23-19.5,33.9c-7.9,11-17,21.6-27.1,31.9
		c-10.1,10.3-20.3,20.3-30.4,30.1c-5.4,5.1-11.5,11.1-18.2,18.2c-6.8,7.1-13.2,14.2-19.2,21.3c-6.1,7.1-11.3,13.9-15.7,20.5
		c-4.4,6.6-6.8,12.1-7.1,16.5h155.9v51.6h-223.3c-0.3-2.7-0.5-6-0.5-9.9c0-3.9,0-6.8,0-8.9c0-16.2,2.6-31.1,7.8-44.8
		c5.2-13.7,12.1-26.4,20.5-38.2c8.4-11.8,17.9-23,28.4-33.4c10.5-10.5,20.9-20.8,31.4-30.9c8.1-7.8,15.9-15.4,23.3-22.8
		c7.4-7.4,13.9-14.8,19.5-22c5.6-7.3,10-14.7,13.4-22.3c3.4-7.6,5.1-15.4,5.1-23.5c0-17.5-5.1-30-15.2-37.5
		c-10.1-7.4-22.5-11.1-37-11.1c-9.5,0-18.2,1.4-26.3,4.1c-8.1,2.7-15.3,5.9-21.5,9.6c-6.3,3.7-11.7,7.5-16.5,11.4
		c-4.7,3.9-8.3,7-10.6,9.4l-30.4-43c14.2-13.5,30.8-24.4,49.9-32.7c19.1-8.3,39.6-12.4,61.5-12.4c37.5,0,65.1,8.9,82.8,26.6
		S1612.2,222.5,1612.2,253.2z"/>
	<path id="r_1_" class="st2" d="M1795,158.5c50.6,0,89.4,9.3,116.2,27.8c26.8,18.6,40.3,46.9,40.3,85.1c0,47.6-23.5,79.8-70.4,96.7
		c6.4,7.8,13.7,17.2,21.8,28.4c8.1,11.1,16.4,23.2,24.8,36.2c8.4,13,16.5,26.3,24.3,40c7.8,13.7,14.7,27.1,20.8,40.3h-71.4
		c-6.4-12.2-13.3-24.4-20.8-36.7c-7.4-12.3-14.9-24.3-22.5-35.9c-7.6-11.6-15.1-22.6-22.5-32.9c-7.4-10.3-14.4-19.5-20.8-27.6
		c-4.7,0.3-8.8,0.5-12.2,0.5c-3.4,0-6.6,0-9.6,0h-30.9v132.7h-63.8V167.1c15.5-3.4,32.1-5.6,49.6-6.8
		C1765.5,159.1,1781.2,158.5,1795,158.5z M1799.6,213.7c-13.5,0-26,0.5-37.5,1.5v113.4h27.8c15.5,0,29.2-0.8,41-2.5
		c11.8-1.7,21.7-4.7,29.6-9.1c7.9-4.4,13.9-10.3,18-17.7c4.1-7.4,6.1-16.9,6.1-28.4c0-10.8-2-19.9-6.1-27.3
		c-4.1-7.4-9.9-13.3-17.5-17.7c-7.6-4.4-16.6-7.5-27.1-9.4C1823.5,214.6,1812,213.7,1799.6,213.7z"/>
	<path id="dot" class="st2" d="M2094.2,479.5c0,11.8-4,21.4-11.9,28.9c-7.9,7.4-17.5,11.1-28.6,11.1c-11.5,0-21.1-3.7-28.9-11.1
		c-7.8-7.4-11.6-17-11.6-28.9c0-11.8,3.9-21.5,11.6-29.1c7.8-7.6,17.4-11.4,28.9-11.4c11.1,0,20.7,3.8,28.6,11.4
		C2090.3,458,2094.2,467.7,2094.2,479.5z"/>
	<path id="n" class="st2" d="M2399.6,512.9c-11.5-19.2-24.3-39.9-38.5-62c-14.2-22.1-28.9-44.4-44.1-66.8
		c-15.2-22.4-30.6-44.2-46.3-65.3c-15.7-21.1-30.6-40.1-44.8-57v251.1h-62.8V162h52.2c13.5,14.2,28,31,43.5,50.4
		c15.5,19.4,31.1,39.6,46.8,60.5c15.7,20.9,30.9,41.9,45.6,63c14.7,21.1,27.8,40.8,39.2,59V162h63.3v350.9H2399.6z"/>
	<path id="e" class="st2" d="M2520.1,381.8c0-23.3,3.5-43.7,10.4-61.3c6.9-17.5,16.1-32.2,27.6-43.8c11.5-11.6,24.6-20.4,39.5-26.3
		c14.8-5.9,30-8.9,45.6-8.9c36.5,0,64.9,11.3,85.3,33.9c20.4,22.6,30.6,56.4,30.6,101.3c0,3.4-0.1,7.2-0.3,11.4
		c-0.2,4.2-0.4,8-0.8,11.4h-174.7c1.7,21.3,9.2,37.7,22.5,49.4c13.3,11.6,32.7,17.5,58,17.5c14.8,0,28.4-1.3,40.8-4.1
		c12.3-2.7,22-5.6,29.1-8.6l8.1,50.1c-3.4,1.7-8,3.5-13.9,5.3c-5.9,1.9-12.7,3.5-20.3,5.1s-15.8,2.8-24.6,3.8
		c-8.8,1-17.7,1.5-26.8,1.5c-23.3,0-43.5-3.5-60.8-10.4c-17.2-6.9-31.4-16.5-42.5-28.9c-11.1-12.3-19.4-26.8-24.8-43.5
		C2522.8,420,2520.1,401.7,2520.1,381.8z M2697.8,354.4c0-8.4-1.2-16.5-3.5-24.1c-2.4-7.6-5.8-14.2-10.4-19.7
		c-4.6-5.6-10.1-10-16.7-13.2c-6.6-3.2-14.4-4.8-23.5-4.8c-9.5,0-17.7,1.8-24.8,5.3s-13.1,8.2-18,13.9c-4.9,5.7-8.7,12.3-11.4,19.7
		c-2.7,7.4-4.6,15-5.6,22.8H2697.8z"/>
	<path id="t" class="st2" d="M2820.8,178.2l61.3-10.1v80h94.2v51.1h-94.2v107.8c0,21.3,3.4,36.5,10.1,45.6
		c6.7,9.1,18.2,13.7,34.4,13.7c11.1,0,21-1.2,29.6-3.5c8.6-2.4,15.4-4.6,20.5-6.6l10.1,48.6c-7.1,3-16.4,6.2-27.8,9.4
		c-11.5,3.2-25,4.8-40.5,4.8c-18.9,0-34.7-2.5-47.3-7.6s-22.7-12.4-30.1-22c-7.4-9.6-12.7-21.3-15.7-34.9c-3-13.7-4.6-29.3-4.6-46.8
		V178.2z"/>
	<path id="w" class="st2" d="M3193.7,346.3c-7.8,29.7-16.1,58.7-25,86.8c-8.9,28.2-17.8,54.8-26.6,79.7h-50.3
		c-6.8-15.5-13.9-33.2-21.3-53.2c-7.4-19.9-14.9-41.2-22.3-63.8c-7.4-22.6-14.9-46.4-22.3-71.4c-7.4-25-14.7-50.5-21.8-76.5h64.8
		c3.1,14.2,6.6,29.5,10.7,45.8c4.1,16.4,8.3,33.1,12.7,50.1c4.4,17,9,33.7,13.7,49.9c4.7,16.2,9.5,31.1,14.2,44.6
		c5.1-15.5,10.1-31.6,15-48.1c4.9-16.5,9.6-33.1,14-49.6c4.4-16.5,8.5-32.7,12.4-48.4s7.4-30.5,10.4-44.3h47.1
		c3,13.8,6.4,28.6,10.1,44.3c3.7,15.7,7.7,31.8,11.9,48.4c4.2,16.5,8.8,33.1,13.6,49.6c4.9,16.5,9.8,32.6,14.9,48.1
		c4.4-13.5,9-28.4,13.7-44.6s9.4-32.8,14-49.9c4.6-17,8.9-33.8,13-50.1c4.1-16.4,7.6-31.6,10.7-45.8h63.3
		c-7.1,26-14.4,51.5-21.8,76.5c-7.4,25-14.9,48.8-22.3,71.4c-7.4,22.6-14.9,43.9-22.3,63.8c-7.4,19.9-14.7,37.6-21.8,53.2h-49.8
		c-8.8-25-17.8-51.6-27.1-79.7C3210,405,3201.5,376,3193.7,346.3z"/>
	<path id="o" class="st2" d="M3664.9,380.3c0,20.9-3,40-9.1,57.2s-14.7,31.9-25.8,44.1c-11.1,12.2-24.6,21.6-40.3,28.4
		c-15.7,6.7-33,10.1-51.9,10.1c-18.9,0-36.1-3.4-51.6-10.1c-15.5-6.7-28.9-16.2-40-28.4s-19.8-26.8-26.1-44.1
		c-6.3-17.2-9.4-36.3-9.4-57.2c0-20.9,3.1-39.9,9.4-57c6.2-17,15-31.6,26.3-43.8c11.3-12.2,24.7-21.5,40.3-28.1
		c15.5-6.6,32.6-9.9,51.1-9.9c18.6,0,35.7,3.3,51.4,9.9c15.7,6.6,29.1,15.9,40.3,28.1c11.1,12.2,19.8,26.8,26.1,43.8
		C3661.7,340.3,3664.9,359.3,3664.9,380.3z M3602.1,380.3c0-26.3-5.7-47.2-17-62.5c-11.3-15.4-27.1-23-47.3-23s-36,7.7-47.3,23
		c-11.3,15.4-17,36.2-17,62.5c0,26.7,5.6,47.8,17,63.3c11.3,15.5,27.1,23.3,47.3,23.3s36-7.8,47.3-23.3
		C3596.4,428,3602.1,406.9,3602.1,380.3z"/>
	<path id="r" class="st2" d="M3879,303.3c-5.1-1.7-12.1-3.5-21-5.3c-8.9-1.9-19.3-2.8-31.1-2.8c-6.8,0-13.9,0.7-21.5,2
		c-7.6,1.4-12.9,2.5-15.9,3.5v212.2h-61.3V260.8c11.8-4.4,26.6-8.5,44.3-12.4c17.7-3.9,37.4-5.8,59-5.8c4.1,0,8.8,0.3,14.2,0.8
		c5.4,0.5,10.8,1.2,16.2,2c5.4,0.8,10.6,1.9,15.7,3c5.1,1.2,9.1,2.3,12.2,3.3L3879,303.3z"/>
	<path id="k" class="st2" d="M3993.5,351.4c7.8-8.1,16-16.8,24.8-26.1c8.8-9.3,17.4-18.6,25.8-27.8c8.4-9.3,16.5-18.2,24.1-26.8
		s14.1-16.1,19.5-22.5h72.4c-16.8,18.9-34.6,38.5-53.3,58.7c-18.7,20.3-37.5,40-56.3,59.2c10.1,8.4,20.7,18.7,31.8,30.6
		c11.1,12,21.9,24.7,32.3,38.2c10.4,13.5,20.2,27,29.3,40.5c9.1,13.5,16.7,26,22.7,37.5h-70.9c-6.1-10.5-13.1-21.4-21-32.9
		c-7.9-11.5-16.5-22.6-25.6-33.4c-9.1-10.8-18.4-21-27.8-30.6c-9.5-9.6-18.7-17.8-27.8-24.6v121.5h-61.3V130.1l61.3-10.1V351.4z"/>
</g>
</svg>
